<svg id="edvfr7020vsm1" xmlns="http://www.w3.org/2000/svg" xmlns:xlink="http://www.w3.org/1999/xlink" viewBox="0 0 650.640000 134.690000" shape-rendering="geometricPrecision" text-rendering="geometricPrecision"><g id="edvfr7020vsm2" transform="matrix(1 0 0 1 -4 0)"><path id="edvfr7020vsm3" d="M519.550000,121C509.300000,116.470000,508.260000,134.660000,508.260000,134.660000L650.640000,134.660000C649.913404,130.632680,648.267378,126.827314,645.830000,123.540000C643.830000,120.900000,634.720000,118.950000,630.830000,117.600000C626.940000,116.250000,625.630000,113.130000,622.770000,110.430000C617.430000,105.360000,615.280000,100.430000,609.600000,106.650000C600.880000,116.220000,583.840000,109.150000,571.250000,104.370000C566.330000,102.500000,558.600000,102.940000,551.010000,104.170000C539.170000,106.100000,537.140000,109.300000,537.140000,109.300000C530.850000,106.410000,522.450000,122.310000,519.550000,121Z" fill="rgb(65,77,80)" stroke="none" stroke-width="1"/><g id="edvfr7020vsm4" transform="matrix(0.99998398451660 -0.00565956803134 0.00565956803134 0.99998398451660 -0.43486029518215 3.25862096624367)"><g id="edvfr7020vsm5"><rect id="edvfr7020vsm6" width="81.880000" height="5.950000" rx="0" ry="0" transform="matrix(1 0 0 1 534.61000000000001 111.98999999999999)" fill="rgb(65,77,80)" stroke="none" stroke-width="1"/><g id="edvfr7020vsm7"><polygon id="edvfr7020vsm8" points="589.790000,65.600000 614.010000,65.600000 609.710000,60.200000 589.790000,60.490000 589.790000,65.600000" fill="rgb(65,77,80)" stroke="none" stroke-width="1"/><path id="edvfr7020vsm9" d="M590.250000,66.880000L590.250000,112L611.540000,112L611.540000,66.880000ZM606.190000,86.480000L595.250000,86.480000L595.250000,73.380000L606.190000,73.380000Z" fill="rgb(65,77,80)" stroke="none" stroke-width="1"/><g id="edvfr7020vsm10"><path id="edvfr7020vsm11" d="M552.760000,50.760000L538.850000,50.760000L538.850000,112.470000L560.670000,112.470000L560.670000,94.470000L571.600000,94.470000L571.600000,112.470000L591,112.470000L591,50.760000L559.070000,50.760000L559.160000,57.910000L562.380000,62.710000L560.670000,56.340000L571.600000,56.340000L571.600000,69.430000L565.220000,69.430000L566.760000,72.370000L567.760000,75.300000L571.640000,75.300000L571.640000,87.200000L572.900000,91.080000L575,97L570.170000,88.420000L560.700000,88.420000L560.700000,75.300000L563.420000,75.300000L560.820000,69.790000L556.460000,61.460000L555.590000,61.020000L555.590000,69.430000L544.630000,69.430000L544.630000,56.340000L549.210000,56.170000ZM576.650000,94.430000L587.580000,94.430000L587.580000,107.530000L576.650000,107.530000ZM576.650000,75.300000L587.580000,75.300000L587.580000,88.400000L576.650000,88.400000ZM576.650000,56.300000L587.580000,56.300000L587.580000,69.430000L576.650000,69.430000ZM544.650000,96.450000L555.580000,96.450000L555.580000,109.550000L544.630000,109.550000ZM544.650000,75.260000L555.580000,75.260000L555.580000,88.400000L544.630000,88.400000Z" fill="rgb(65,77,80)" stroke="none" stroke-width="1"/><rect id="edvfr7020vsm12" width="11.090000" height="7.170000" rx="0" ry="0" transform="matrix(1 0 0 1 575.20000000000005 38.99000000000000)" fill="rgb(65,77,80)" stroke="none" stroke-width="1"/><polygon id="edvfr7020vsm13" points="547.640000,43.320000 552.660000,46.650000 552.760000,49.800000 535.200000,49.800000 535.200000,43.320000 547.640000,43.320000" fill="rgb(65,77,80)" stroke="none" stroke-width="1"/><polygon id="edvfr7020vsm14" points="559,44.750000 558.260000,43.320000 575.200000,43.320000 575.200000,44.910000 586.290000,44.910000 586.290000,43.320000 594.670000,43.320000 594.670000,49.800000 559.070000,49.800000 559,44.750000" fill="rgb(65,77,80)" stroke="none" stroke-width="1"/></g></g></g></g></g><g id="edvfr7020vsm15"><path id="edvfr7020vsm16" d="M332.400000,35.540000C333,35.200000,322.310000,38.540000,320.560000,39.390000C319.110000,40.110000,320.560000,35.250000,321.420000,34.390000C320.210000,35.390000,317.670000,40.900000,316.180000,42.020000C314.970000,43.020000,313.650000,36.280000,319.770000,33.100000C317.280000,33.940000,314.020000,35.630000,312.700000,38.420000C312.200000,39.420000,312.100000,41.420000,311.700000,42.760000C311.308290,47.397400,311.281541,52.058409,311.620000,56.700000C316.900000,57.410000,323.110000,52.650000,325.240000,49.340000C325.240000,49.340000,318.940000,52.970000,319.790000,50.160000C320.730000,47.100000,323.690000,49.280000,325.680000,48.160000C327.299991,47.030672,328.582407,45.482094,329.390000,43.680000C326.960000,45.160000,320.830000,47.300000,323.600000,44.080000C325,42.360000,322.770000,41,332.400000,35.540000Z" opacity="0" fill="rgb(65,77,80)" stroke="none" stroke-width="1"/><path id="edvfr7020vsm17" d="M379.690000,88.730000C380.190000,88.450000,371.280000,91.230000,369.820000,91.930000C368.620000,92.540000,369.820000,88.490000,370.540000,87.740000C369.540000,88.540000,367.420000,93.170000,366.180000,94.110000C365.180000,94.910000,364.070000,89.320000,369.180000,86.670000C367.100000,87.370000,364.380000,88.780000,363.280000,91.100000C362.937373,92.289261,362.666881,93.498128,362.470000,94.720000C362.144274,98.582381,362.124211,102.464459,362.410000,106.330000C366.810000,106.920000,371.980000,102.960000,373.760000,100.200000C373.760000,100.200000,368.510000,103.200000,369.220000,100.890000C370,98.330000,372.470000,100.150000,374.120000,99.210000C375.472079,98.270372,376.543554,96.981146,377.220000,95.480000C375.220000,96.710000,370.080000,98.480000,372.390000,95.810000C373.550000,94.410000,371.670000,93.260000,379.690000,88.730000Z" opacity="0" fill="rgb(65,77,80)" stroke="none" stroke-width="1"/><path id="edvfr7020vsm18" d="M266.490000,75.110000C264.410000,77.380000,262.550000,78.010000,260.360000,77.910000C258.780000,77.910000,256.620000,77,253.860000,75.360000C251.550000,74.010000,247.680000,77.360000,245.510000,76.070000C246.790000,73.810000,248.510000,72.070000,250.610000,71.950000L249.450000,70.950000Q246.140000,68.390000,245.690000,68.130000C244.267764,67.224376,242.536083,66.942390,240.900000,67.350000Q242.980000,64.830000,246.720000,65.800000L246.790000,65.670000L245.330000,64.110000C244.537917,63.236110,243.652657,62.451447,242.690000,61.770000C241.095768,60.771766,239.284854,60.171557,237.410000,60.020000C238.815104,59.074208,240.476465,58.582082,242.170000,58.610000C241.490686,57.511820,240.531129,56.614393,239.390000,56.010000C238.902545,55.738026,238.398181,55.497534,237.880000,55.290000C237.220000,55.010000,236.800000,54.810000,236.620000,54.710000C234.750000,53.610000,233.770000,52.510000,233.620000,51.390000C236.718594,52.472744,240.006349,52.908389,243.280000,52.670000L248.860000,54.020000L248.860000,53.950000L248.420000,53.690000L247.320000,53.050000L246.600000,52.540000C245.503074,51.927923,244.266106,51.610928,243.010000,51.620000C243.889361,50.839398,245.006116,50.377900,246.180000,50.310000C247.313142,50.133163,248.466858,50.133163,249.600000,50.310000C251.499583,50.704815,253.320813,51.411006,254.990000,52.400000L257.290000,53.750000L257.290000,53.690000C256.645939,52.276200,255.646867,51.053198,254.390000,50.140000C253.867126,49.824787,253.258600,49.681399,252.650000,49.730000C254.650000,48.610000,256.390000,50.060000,259.300000,51.730000C259.380000,51.780000,259.980000,52.220000,261.090000,53.050000L263.650000,54.550000C263.530000,53.900000,263.010000,52.170000,260.570000,47.620000C263.570000,48.670000,265.460000,51.620000,266.570000,52.270000C269.240000,53.850000,270.670000,56.780000,271.570000,59.270000C272.581197,61.957166,272.273952,64.962991,270.740000,67.390000C270.057784,68.467406,269.179210,69.407040,268.150000,70.160000C268.481327,68.284716,268.262514,66.353608,267.520000,64.600000C266.989486,62.823985,265.945743,61.244454,264.520000,60.060000L265.390000,63.400000L264.090000,61.660000C263.513550,60.903114,262.805602,60.256138,262,59.750000C261.520295,59.414572,260.969074,59.195453,260.390000,59.110000C261.411169,60.055331,262.110578,61.296783,262.390000,62.660000L263.210000,64.490000C262.919598,64.532179,262.624380,64.456574,262.390000,64.280000C261.849026,63.873651,261.379301,63.380270,261,62.820000C260.566540,62.209965,260.028180,61.681763,259.410000,61.260000C258.433726,60.789695,257.379769,60.501636,256.300000,60.410000L253.600000,60.310000L253.600000,60.380000L256.710000,62.210000C257.766552,62.740162,258.694783,63.494349,259.430000,64.420000L261.130000,66.330000C260.502559,66.051693,259.808778,65.958033,259.130000,66.060000C257.977498,66.283516,256.783821,66.136494,255.720000,65.640000L255.720000,65.700000C256.578942,66.764805,257.634817,67.654320,258.830000,68.320000C260.377967,69.166430,262.143185,69.532008,263.900000,69.370000Q261.780000,71.920000,255.900000,69.840000L255.900000,69.910000C256.831360,71.082930,257.966091,72.078783,259.250000,72.850000C262.048758,74.321147,265.463478,73.924087,267.850000,71.850000C267.827245,73.053608,267.389180,74.212358,266.610000,75.130000Z" opacity="0" fill="rgb(65,77,80)" stroke="none" stroke-width="1"/><g id="edvfr7020vsm19"><g id="edvfr7020vsm20"><rect id="edvfr7020vsm21" width="50.470000" height="4.540000" rx="0" ry="0" transform="matrix(1 0 0 1 262.86000000000001 130.16000000000000)" fill="rgb(65,77,80)" stroke="none" stroke-width="1"/><path id="edvfr7020vsm22" d="M266.680000,27.740000L266.680000,129.170000L309.510000,129.170000L309.510000,27.740000ZM280.110000,120L272.110000,120L272.110000,112L280.110000,112ZM280.110000,106.850000L272.110000,106.850000L272.110000,98.850000L280.110000,98.850000ZM280.110000,92.540000L272.110000,92.540000L272.110000,84.540000L280.110000,84.540000ZM280.110000,78.770000L272.110000,78.770000L272.110000,70.770000L280.110000,70.770000ZM292.110000,127.380000L284.110000,127.380000L284.110000,112.050000L292.110000,112.050000ZM292.110000,106.850000L284.110000,106.850000L284.110000,98.850000L292.110000,98.850000ZM292.110000,92.540000L284.110000,92.540000L284.110000,84.540000L292.110000,84.540000ZM292.110000,78.770000L284.110000,78.770000L284.110000,70.770000L292.110000,70.770000ZM303.840000,120L295.840000,120L295.840000,112L303.840000,112ZM303.840000,106.850000L295.840000,106.850000L295.840000,98.850000L303.840000,98.850000ZM303.840000,92.540000L295.840000,92.540000L295.840000,84.540000L303.840000,84.540000ZM303.840000,78.770000L295.840000,78.770000L295.840000,70.770000L303.840000,70.770000ZM280.110000,66.370000L272.110000,66.370000L272.110000,58.370000L280.110000,58.370000ZM292.110000,66.370000L284.110000,66.370000L284.110000,58.370000L292.110000,58.370000ZM303.840000,66.370000L295.840000,66.370000L295.840000,58.370000L303.840000,58.370000ZM280.110000,53.930000L272.110000,53.930000L272.110000,45.930000L280.110000,45.930000ZM292.110000,53.930000L284.110000,53.930000L284.110000,45.930000L292.110000,45.930000ZM303.840000,53.930000L295.840000,53.930000L295.840000,45.930000L303.840000,45.930000ZM280.110000,42.220000L272.110000,42.220000L272.110000,34.220000L280.110000,34.220000ZM292.110000,42.220000L284.110000,42.220000L284.110000,34.220000L292.110000,34.220000ZM303.840000,42.220000L295.840000,42.220000L295.840000,34.220000L303.840000,34.220000Z" fill="rgb(65,77,80)" stroke="none" stroke-width="1"/></g><g id="edvfr7020vsm23"><rect id="edvfr7020vsm24" width="50.470000" height="4.540000" rx="0" ry="0" transform="matrix(1 0 0 1 314.64999999999998 130.16000000000000)" fill="rgb(65,77,80)" stroke="none" stroke-width="1"/><path id="edvfr7020vsm25" d="M318.470000,63.600000L318.470000,129.170000L361.300000,129.170000L361.300000,63.600000ZM331.900000,106.890000L323.900000,106.890000L323.900000,98.890000L331.900000,98.890000ZM331.900000,92.580000L323.900000,92.580000L323.900000,84.580000L331.900000,84.580000ZM331.900000,78.810000L323.900000,78.810000L323.900000,70.810000L331.900000,70.810000ZM343.900000,127.420000L335.900000,127.420000L335.900000,112.050000L343.900000,112.050000ZM343.900000,106.890000L335.900000,106.890000L335.900000,98.890000L343.900000,98.890000ZM343.900000,92.580000L335.900000,92.580000L335.900000,84.580000L343.900000,84.580000ZM343.900000,78.810000L335.900000,78.810000L335.900000,70.810000L343.900000,70.810000ZM355.630000,106.890000L347.630000,106.890000L347.630000,98.890000L355.630000,98.890000ZM355.630000,92.580000L347.630000,92.580000L347.630000,84.580000L355.630000,84.580000ZM355.630000,78.810000L347.630000,78.810000L347.630000,70.810000L355.630000,70.810000Z" fill="rgb(65,77,80)" stroke="none" stroke-width="1"/></g></g></g><g id="edvfr7020vsm26"><g id="edvfr7020vsm27" transform="matrix(1 0 0 1 -55.10000000000000 5.59000017000000)" opacity="0"><path id="edvfr7020vsm28" d="M167.596951,69.416587C167.806951,69.064934,168.296951,68.261155,167.136951,68.411863L160.706951,68.472147C160.536951,68.472147,160.146951,68.472147,159.946951,69.175454L155.356951,80.940771C155.266951,81.302472,155.066951,82.156487,155.596951,82.166534L160.516951,82.035920L156.146951,93.560104L165.296951,80.006378C165.296951,80.006378,165.746951,79.343260,165.036951,79.413591L160.496951,79.493969Z" transform="matrix(1.01538245619936 -0.00523035956890 0.00232748519920 0.45184037678553 -84.59789794525611 -6.81475786603084)" opacity="0.6" fill="rgb(65,77,80)" stroke="none" stroke-width="1"/><path id="edvfr7020vsm29" d="M28.769577,24.309305L40.290808,24.309305C40.672359,24.318337,41.053971,24.293489,41.430069,24.235124C45.711348,23.679033,48.861831,20.350998,48.780137,16.470827C48.780997,13.265883,46.593487,10.387614,43.267586,9.217556C43.081504,4.308331,38.725556,0.349614,33.256210,0.119144C27.786864,-0.111327,23.036469,3.463662,22.338267,8.335624C20.507682,7.302436,18.195554,7.244332,16.303368,8.183967C14.411183,9.123601,13.238506,10.912213,13.242557,12.852434C13.243818,13.072836,13.259156,13.292993,13.288495,13.511822C12.396599,13.087232,11.404050,12.861090,10.394406,12.852434C7.064524,12.874048,4.312210,15.187710,4.071886,18.167297C3.831561,21.146884,6.183921,23.791913,9.475647,24.243366C9.720946,24.285695,9.970053,24.307767,10.219842,24.309305L28.769577,24.309305Z" transform="matrix(1 0 0 1 54.24732568500092 -0.10860467000000)" opacity="0" fill="rgb(65,77,80)" stroke="none" stroke-width="1"/></g><g id="edvfr7020vsm30"><g id="edvfr7020vsm31"><rect id="edvfr7020vsm32" width="26.410000" height="5.410000" rx="0" ry="0" transform="matrix(1 0 0 1 69.18000000000001 72.20000000000000)" fill="rgb(65,77,80)" stroke="none" stroke-width="1"/><path id="edvfr7020vsm33" d="M13.650000,125L37.430000,125L37.430000,106L49.350000,106L49.350000,125L70.510000,125L70.510000,53L13.650000,53ZM54.860000,65.710000L66.770000,65.710000L66.770000,79.550000L54.860000,79.550000ZM54.860000,85.710000L66.770000,85.710000L66.770000,99.590000L54.860000,99.590000ZM54.860000,105.920000L66.770000,105.920000L66.770000,119.800000L54.860000,119.800000ZM37.430000,65.710000L49.350000,65.710000L49.350000,79.550000L37.430000,79.550000ZM37.430000,85.710000L49.350000,85.710000L49.350000,99.590000L37.430000,99.590000ZM20,65.710000L31.870000,65.710000L31.870000,79.550000L20,79.550000ZM20,85.710000L31.870000,85.710000L31.870000,99.590000L20,99.590000ZM20,106L31.870000,106L31.870000,119.800000L20,119.800000Z" fill="rgb(65,77,80)" stroke="none" stroke-width="1"/><rect id="edvfr7020vsm34" width="12.090000" height="8.080000" rx="0" ry="0" transform="matrix(1 0 0 1 53.27000000000000 46.56000000000000)" fill="rgb(65,77,80)" stroke="none" stroke-width="1"/><rect id="edvfr7020vsm35" width="61.480000" height="8.590000" rx="0" ry="0" transform="matrix(1 0 0 1 11.34000000000000 51.22000000000000)" fill="rgb(65,77,80)" stroke="none" stroke-width="1"/><path id="edvfr7020vsm36" d="M69.680000,77.350000L69.680000,125L92.890000,125L92.890000,77.350000ZM87.050000,98.070000L75.130000,98.070000L75.130000,84.230000L87.050000,84.230000Z" fill="rgb(65,77,80)" stroke="none" stroke-width="1"/></g><rect id="edvfr7020vsm37" width="103.830000" height="8.160000" rx="0" ry="0" transform="matrix(1 0 0 1 0 126.54000000000001)" fill="rgb(65,77,80)" stroke="none" stroke-width="1"/></g></g><script><![CDATA[!function(t,n){"object"==typeof exports&&"undefined"!=typeof module?module.exports=n():"function"==typeof define&&define.amd?define(n):(t=t||self).__SVGATOR_PLAYER__=n()}(this,(function(){"use strict";function t(n){return(t="function"==typeof Symbol&&"symbol"==typeof Symbol.iterator?function(t){return typeof t}:function(t){return t&&"function"==typeof Symbol&&t.constructor===Symbol&&t!==Symbol.prototype?"symbol":typeof t})(n)}function n(t,n){if(!(t instanceof n))throw new TypeError("Cannot call a class as a function")}function r(t,n){for(var r=0;r<n.length;r++){var e=n[r];e.enumerable=e.enumerable||!1,e.configurable=!0,"value"in e&&(e.writable=!0),Object.defineProperty(t,e.key,e)}}function e(t,n,e){return n&&r(t.prototype,n),e&&r(t,e),t}var i=1e-5,u=Math.abs;function o(t){return t}function a(t,n,r){var e=1-r;return 3*r*e*(t*e+n*r)+r*r*r}function l(){var t=arguments.length>0&&void 0!==arguments[0]?arguments[0]:0,n=arguments.length>1&&void 0!==arguments[1]?arguments[1]:0,r=arguments.length>2&&void 0!==arguments[2]?arguments[2]:1,e=arguments.length>3&&void 0!==arguments[3]?arguments[3]:1;return t<0||t>1||r<0||r>1?null:u(t-n)<=i&&u(r-e)<=i?o:function(o){if(o<=0)return t>0?o*n/t:0===n&&r>0?o*e/r:0;if(o>=1)return r<1?1+(o-1)*(e-1)/(r-1):1===r&&t<1?1+(o-1)*(n-1)/(t-1):1;for(var l,f=0,s=1;f<s;){var c=a(t,r,l=(f+s)/2);if(u(o-c)<i)break;c<o?f=l:s=l}return a(n,e,l)}}function f(){return 1}function s(t){return 1===t?1:0}function c(){var t=arguments.length>0&&void 0!==arguments[0]?arguments[0]:1,n=arguments.length>1&&void 0!==arguments[1]?arguments[1]:0;if(1===t){if(0===n)return s;if(1===n)return f}var r=1/t;return function(t){return t>=1?1:(t+=n*r)-t%r}}function v(t){var n=arguments.length>1&&void 0!==arguments[1]?arguments[1]:2;if(Number.isInteger(t))return t;var r=Math.pow(10,n);return Math.round(t*r)/r}var h=Math.PI/180;function y(t,n,r){return t>=.5?r:n}function d(t,n,r){return 0===t||n===r?n:t*(r-n)+n}function g(t,n,r){var e=d(t,n,r);return e<=0?0:e}function m(t,n,r){return 0===t?n:1===t?r:{x:d(t,n.x,r.x),y:d(t,n.y,r.y)}}function p(t,n,r){return 0===t?n:1===t?r:{x:g(t,n.x,r.x),y:g(t,n.y,r.y)}}function b(t,n,r){var e=function(t,n,r){return Math.round(d(t,n,r))}(t,n,r);return e<=0?0:e>=255?255:e}function w(t,n,r){return 0===t?n:1===t?r:{r:b(t,n.r,r.r),g:b(t,n.g,r.g),b:b(t,n.b,r.b),a:d(t,null==n.a?1:n.a,null==r.a?1:r.a)}}function A(t,n,r){if(0===t)return n;if(1===t)return r;var e=n.length;if(e!==r.length)return y(t,n,r);for(var i=[],u=0;u<e;u++)i.push(w(t,n[u],r[u]));return i}function x(t,n,r){var e=n.length;if(e!==r.length)return y(t,n,r);for(var i=new Array(e),u=0;u<e;u++)i[u]=d(t,n[u],r[u]);return i}function k(t,n){for(var r=[],e=0;e<t;e++)r.push(n);return r}function S(t,n){if(--n<=0)return t;var r=(t=Object.assign([],t)).length;do{for(var e=0;e<r;e++)t.push(t[e])}while(--n>0);return t}var _=6,M=/\.0+$/g;function I(t){return Number.isInteger(t)?t+"":t.toFixed(_).replace(M,"")}function E(t){var n=arguments.length>1&&void 0!==arguments[1]?arguments[1]:" ";return t&&t.length?t.map(I).join(n):""}function F(t){return I(t.x)+","+I(t.y)}function B(t){return t?null==t.a||t.a>=1?"rgb("+t.r+","+t.g+","+t.b+")":"rgba("+t.r+","+t.g+","+t.b+","+t.a+")":"transparent"}var j={f:null,i:p,u:function(t,n){return function(r){var e=n(r);t.setAttribute("rx",I(e.x)),t.setAttribute("ry",I(e.y))}}},q={f:null,i:function(t,n,r){return 0===t?n:1===t?r:{width:g(t,n.width,r.width),height:g(t,n.height,r.height)}},u:function(t,n){return function(r){var e=n(r);t.setAttribute("width",I(e.width)),t.setAttribute("height",I(e.height))}}},P=Math.sin,O=Math.cos,z=Math.acos,L=Math.asin,C=Math.tan,R=Math.atan2,T=Math.PI/180,V=180/Math.PI,D=Math.sqrt,N=function(){function t(){var r=arguments.length>0&&void 0!==arguments[0]?arguments[0]:1,e=arguments.length>1&&void 0!==arguments[1]?arguments[1]:0,i=arguments.length>2&&void 0!==arguments[2]?arguments[2]:0,u=arguments.length>3&&void 0!==arguments[3]?arguments[3]:1,o=arguments.length>4&&void 0!==arguments[4]?arguments[4]:0,a=arguments.length>5&&void 0!==arguments[5]?arguments[5]:0;n(this,t),this.m=[r,e,i,u,o,a],this.i=null,this.w=null,this.s=null}return e(t,[{key:"point",value:function(t,n){var r=this.m;return{x:r[0]*t+r[2]*n+r[4],y:r[1]*t+r[3]*n+r[5]}}},{key:"translateSelf",value:function(){var t=arguments.length>0&&void 0!==arguments[0]?arguments[0]:0,n=arguments.length>1&&void 0!==arguments[1]?arguments[1]:0;if(!t&&!n)return this;var r=this.m;return r[4]+=r[0]*t+r[2]*n,r[5]+=r[1]*t+r[3]*n,this.w=this.s=this.i=null,this}},{key:"rotateSelf",value:function(){var t=arguments.length>0&&void 0!==arguments[0]?arguments[0]:0;if(t%=360){var n=P(t*=T),r=O(t),e=this.m,i=e[0],u=e[1];e[0]=i*r+e[2]*n,e[1]=u*r+e[3]*n,e[2]=e[2]*r-i*n,e[3]=e[3]*r-u*n,this.w=this.s=this.i=null}return this}},{key:"scaleSelf",value:function(){var t=arguments.length>0&&void 0!==arguments[0]?arguments[0]:1,n=arguments.length>1&&void 0!==arguments[1]?arguments[1]:1;if(1!==t||1!==n){var r=this.m;r[0]*=t,r[1]*=t,r[2]*=n,r[3]*=n,this.w=this.s=this.i=null}return this}},{key:"skewSelf",value:function(t,n){if(n%=360,(t%=360)||n){var r=this.m,e=r[0],i=r[1],u=r[2],o=r[3];t&&(t=C(t*T),r[2]+=e*t,r[3]+=i*t),n&&(n=C(n*T),r[0]+=u*n,r[1]+=o*n),this.w=this.s=this.i=null}return this}},{key:"resetSelf",value:function(){var t=arguments.length>0&&void 0!==arguments[0]?arguments[0]:1,n=arguments.length>1&&void 0!==arguments[1]?arguments[1]:0,r=arguments.length>2&&void 0!==arguments[2]?arguments[2]:0,e=arguments.length>3&&void 0!==arguments[3]?arguments[3]:1,i=arguments.length>4&&void 0!==arguments[4]?arguments[4]:0,u=arguments.length>5&&void 0!==arguments[5]?arguments[5]:0,o=this.m;return o[0]=t,o[1]=n,o[2]=r,o[3]=e,o[4]=i,o[5]=u,this.w=this.s=this.i=null,this}},{key:"recomposeSelf",value:function(){var t=arguments.length>0&&void 0!==arguments[0]?arguments[0]:null,n=arguments.length>1&&void 0!==arguments[1]?arguments[1]:null,r=arguments.length>2&&void 0!==arguments[2]?arguments[2]:null,e=arguments.length>3&&void 0!==arguments[3]?arguments[3]:null,i=arguments.length>4&&void 0!==arguments[4]?arguments[4]:null;return this.isIdentity||this.resetSelf(),t&&(t.x||t.y)&&this.translateSelf(t.x,t.y),n&&this.rotateSelf(n),r&&(r.x&&this.skewSelf(r.x,0),r.y&&this.skewSelf(0,r.y)),!e||1===e.x&&1===e.y||this.scaleSelf(e.x,e.y),i&&(i.x||i.y)&&this.translateSelf(i.x,i.y),this}},{key:"decompose",value:function(){var t=arguments.length>0&&void 0!==arguments[0]?arguments[0]:0,n=arguments.length>1&&void 0!==arguments[1]?arguments[1]:0,r=this.m,e=r[0]*r[0]+r[1]*r[1],i=[[r[0],r[1]],[r[2],r[3]]],u=D(e);if(0===u)return{origin:{x:r[4],y:r[5]},translate:{x:t,y:n},scale:{x:0,y:0},skew:{x:0,y:0},rotate:0};i[0][0]/=u,i[0][1]/=u;var o=r[0]*r[3]-r[1]*r[2]<0;o&&(u=-u);var a=i[0][0]*i[1][0]+i[0][1]*i[1][1];i[1][0]-=i[0][0]*a,i[1][1]-=i[0][1]*a;var l=D(i[1][0]*i[1][0]+i[1][1]*i[1][1]);if(0===l)return{origin:{x:r[4],y:r[5]},translate:{x:t,y:n},scale:{x:u,y:0},skew:{x:0,y:0},rotate:0};i[1][0]/=l,i[1][1]/=l,a/=l;var f=0;return i[1][1]<0?(f=z(i[1][1])*V,i[0][1]<0&&(f=360-f)):f=L(i[0][1])*V,o&&(f=-f),a=R(a,D(i[0][0]*i[0][0]+i[0][1]*i[0][1]))*V,{origin:{x:r[4],y:r[5]},translate:{x:t,y:n},scale:{x:u,y:l},skew:{x:a,y:0},rotate:f}}},{key:"toString",value:function(){return null===this.s&&(this.s="matrix("+this.m.map($).join(" ")+")"),this.s}},{key:"determinant",get:function(){var t=this.m;return t[0]*t[3]-t[1]*t[2]}},{key:"isIdentity",get:function(){if(null===this.i){var t=this.m;this.i=1===t[0]&&0===t[1]&&0===t[2]&&1===t[3]&&0===t[4]&&0===t[5]}return this.i}}]),t}(),G=/\.0+$/;function $(t){return Number.isInteger(t)?t:t.toFixed(14).replace(G,"")}Object.freeze({M:2,L:2,Z:0,H:1,V:1,C:6,Q:4,T:2,S:4,A:7});function H(t,n,r){return t+(n-t)*r}function Q(t,n,r){var e=arguments.length>3&&void 0!==arguments[3]&&arguments[3],i={x:H(t.x,n.x,r),y:H(t.y,n.y,r)};return e&&(i.a=function(t,n){return Math.atan2(n.y-t.y,n.x-t.x)}(t,n)),i}function U(t,n,r,e){var i=1-e;return i*i*t+2*i*e*n+e*e*r}function Y(t,n,r,e){return 2*(1-e)*(n-t)+2*e*(r-n)}function Z(t,n,r,e){var i=arguments.length>4&&void 0!==arguments[4]&&arguments[4],u={x:U(t.x,n.x,r.x,e),y:U(t.y,n.y,r.y,e)};return i&&(u.a=function(t,n,r,e){return Math.atan2(Y(t.y,n.y,r.y,e),Y(t.x,n.x,r.x,e))}(t,n,r,e)),u}function J(t,n,r,e,i){var u=i*i;return i*u*(e-t+3*(n-r))+3*u*(t+r-2*n)+3*i*(n-t)+t}function K(t,n,r,e,i){var u=1-i;return 3*(u*u*(n-t)+2*u*i*(r-n)+i*i*(e-r))}function W(t,n,r,e,i){var u=arguments.length>5&&void 0!==arguments[5]&&arguments[5],o={x:J(t.x,n.x,r.x,e.x,i),y:J(t.y,n.y,r.y,e.y,i)};return u&&(o.a=function(t,n,r,e,i){return Math.atan2(K(t.y,n.y,r.y,e.y,i),K(t.x,n.x,r.x,e.x,i))}(t,n,r,e,i)),o}function X(t,n,r){var e,i=arguments.length>3&&void 0!==arguments[3]&&arguments[3];if(nt(n)){if(null!=(e=r).start&&!nt(e))return Z(n,r.start,r,t,i)}else if(nt(r)){if(n.end)return Z(n,n.end,r,t,i)}else{if(n.end)return r.start?W(n,n.end,r.start,r,t,i):Z(n,n.end,r,t,i);if(r.start)return Z(n,r.start,r,t,i)}return Q(n,r,t,i)}function tt(t,n,r){var e=X(t,n,r,!0);return e.a=function(t){return arguments.length>1&&void 0!==arguments[1]&&arguments[1]?t+Math.PI:t}(e.a)/h,e}function nt(t){return!t.type||"corner"===t.type}var rt=new N;var et={f:function(t){return t?t.join(" "):""},i:function(n,r,e){if(0===n)return r;if(1===n)return e;var i=r.length;if(i!==e.length)return y(n,r,e);for(var u,o=new Array(i),a=0;a<i;a++){if((u=t(r[a]))!==t(e[a]))return y(n,r,e);if("number"===u)o[a]=d(n,r[a],e[a]);else{if(r[a]!==e[a])return y(n,r,e);o[a]=r[a]}}return o}},it={f:null,i:x,u:function(t,n){return function(r){var e=n(r);t.setAttribute("x1",I(e[0])),t.setAttribute("y1",I(e[1])),t.setAttribute("x2",I(e[2])),t.setAttribute("y2",I(e[3]))}}},ut={f:I,i:d},ot={f:I,i:function(t,n,r){var e=d(t,n,r);return e<=0?0:e>=1?1:e}},at={f:E,i:function(t,n,r){var e,i,u,o=n.length,a=r.length;if(o!==a)if(0===o)n=k(o=a,0);else if(0===a)a=o,r=k(o,0);else{var l=(u=(e=o)*(i=a)/function(t,n){for(var r;n;)r=n,n=t%n,t=r;return t||1}(e,i))<0?-u:u;n=S(n,Math.floor(l/o)),r=S(r,Math.floor(l/a)),o=a=l}for(var f=[],s=0;s<o;s++)f.push(v(g(t,n[s],r[s]),6));return f}};function lt(t,n,r,e,i,u,o,a){return n=function(t,n,r){for(var e,i,u,o=t.length-1,a={},l=0;l<=o;l++)(e=t[l]).e&&(e.e=n(e.e)),e.v&&"g"===(i=e.v).t&&i.r&&(u=r.getElementById(i.r))&&(a[i.r]=u.querySelectorAll("stop"));return a}(t,e,a),function(e){var i,u=r(e,t,ft);return u?"c"===u.t?B(u.v):"g"===u.t?(n[u.r]&&function(t,n){for(var r=0,e=t.length;r<e;r++)t[r].setAttribute("stop-color",B(n[r]))}(n[u.r],u.v),(i=u.r)?"url(#"+i+")":"none"):"none":"none"}}function ft(t,n,r){if(0===t)return n;if(1===t)return r;if(n&&r){var e=n.t;if(e===r.t)switch(n.t){case"c":return{t:e,v:w(t,n.v,r.v)};case"g":if(n.r===r.r)return{t:e,v:A(t,n.v,r.v),r:n.r}}}return y(t,n,r)}var st={blur:p,brightness:g,contrast:g,"drop-shadow":function(t,n,r){return 0===t?n:1===t?r:{blur:p(t,n.blur,r.blur),offset:m(t,n.offset,r.offset),color:w(t,n.color,r.color)}},grayscale:g,"hue-rotate":d,invert:g,opacity:g,saturate:g,sepia:g};function ct(t,n,r){if(0===t)return n;if(1===t)return r;var e=n.length;if(e!==r.length)return y(t,n,r);for(var i,u=[],o=0;o<e;o++){if(n[o].type!==r[o].type)return n;if(!(i=st[n[o].type]))return y(t,n,r);u.push({type:n.type,value:i(t,n[o].value,r[o].value)})}return u}var vt={blur:function(t){return t?function(n){t.setAttribute("stdDeviation",F(n))}:null},brightness:function(t,n,r){return(t=yt(r,n))?function(n){n=I(n),t.map((function(t){return t.setAttribute("slope",n)}))}:null},contrast:function(t,n,r){return(t=yt(r,n))?function(n){var r=I((1-n)/2);n=I(n),t.map((function(t){t.setAttribute("slope",n),t.setAttribute("intercept",r)}))}:null},"drop-shadow":function(t,n,r){var e=r.getElementById(n+"-blur");if(!e)return null;var i=r.getElementById(n+"-offset");if(!i)return null;var u=r.getElementById(n+"-flood");return u?function(t){e.setAttribute("stdDeviation",F(t.blur)),i.setAttribute("dx",I(t.offset.x)),i.setAttribute("dy",I(t.offset.y)),u.setAttribute("flood-color",B(t.color))}:null},grayscale:function(t){return t?function(n){t.setAttribute("values",E(function(t){return[.2126+.7874*(t=1-t),.7152-.7152*t,.0722-.0722*t,0,0,.2126-.2126*t,.7152+.2848*t,.0722-.0722*t,0,0,.2126-.2126*t,.7152-.7152*t,.0722+.9278*t,0,0,0,0,0,1,0]}(n)))}:null},"hue-rotate":function(t){return t?function(n){return t.setAttribute("values",I(n))}:null},invert:function(t,n,r){return(t=yt(r,n))?function(n){n=I(n)+" "+I(1-n),t.map((function(t){return t.setAttribute("tableValues",n)}))}:null},opacity:function(t,n,r){return(t=r.getElementById(n+"-A"))?function(n){return t.setAttribute("tableValues","0 "+I(n))}:null},saturate:function(t){return t?function(n){return t.setAttribute("values",I(n))}:null},sepia:function(t){return t?function(n){return t.setAttribute("values",E(function(t){return[.393+.607*(t=1-t),.769-.769*t,.189-.189*t,0,0,.349-.349*t,.686+.314*t,.168-.168*t,0,0,.272-.272*t,.534-.534*t,.131+.869*t,0,0,0,0,0,1,0]}(n)))}:null}};var ht=["R","G","B"];function yt(t,n){var r=ht.map((function(r){return t.getElementById(n+"-"+r)||null}));return-1!==r.indexOf(null)?null:r}var dt={fill:lt,"fill-opacity":ot,stroke:lt,"stroke-opacity":ot,"stroke-width":ut,"stroke-dashoffset":{f:I,i:d},"stroke-dasharray":at,opacity:ot,transform:function(n,r,e,i){if(!(n=function(n,r){if(!n||"object"!==t(n))return null;var e=!1;for(var i in n)n.hasOwnProperty(i)&&(n[i]&&n[i].length?(n[i].forEach((function(t){t.e&&(t.e=r(t.e))})),e=!0):delete n[i]);return e?n:null}(n,i)))return null;var u=function(t,i,u){var o=arguments.length>3&&void 0!==arguments[3]?arguments[3]:null;return n[t]?e(i,n[t],u):r&&r[t]?r[t]:o};return r&&r.a&&n.o?function(t){var r=e(t,n.o,tt);return rt.recomposeSelf(r,u("r",t,d,0)+r.a,u("k",t,m),u("s",t,m),u("t",t,m)).toString()}:function(t){return rt.recomposeSelf(u("o",t,X,null),u("r",t,d,0),u("k",t,m),u("s",t,m),u("t",t,m)).toString()}},"#filter":function(t,n,r,e,i,u,o,a){if(!n.items||!t||!t.length)return null;var l=function(t,n){var r=(t=t.map((function(t){return t&&vt[t[0]]?(n.getElementById(t[1]),vt[t[0]](n.getElementById(t[1]),t[1],n)):null}))).length;return function(n){for(var e=0;e<r;e++)t[e]&&t[e](n[e].value)}}(n.items,a);return l?(t=function(t,n){return t.map((function(t){return t.e=n(t.e),t}))}(t,e),function(n){l(r(n,t,ct))}):null},"#line":it,points:{f:E,i:x},d:et,r:ut,"#size":q,"#radius":j,_:function(t,n){if(Array.isArray(t))for(var r=0;r<t.length;r++)this[t[r]]=n;else this[t]=n}},gt=function(){function t(r){n(this,t),this.list=r,this.length=r.length}return e(t,[{key:"setAttribute",value:function(t,n){for(var r=this.list,e=0;e<this.length;e++)r[e].setAttribute(t,n)}},{key:"removeAttribute",value:function(t){for(var n=this.list,r=0;r<this.length;r++)n[r].removeAttribute(t)}},{key:"style",value:function(t,n){for(var r=this.list,e=0;e<this.length;e++)r[e].style[t]=n}}]),t}(),mt=/-./g,pt=function(t,n){return n.toUpperCase()};function bt(t){return"function"==typeof t?t:y}function wt(t){return t?"function"==typeof t?t:Array.isArray(t)?function(t){var n=arguments.length>1&&void 0!==arguments[1]?arguments[1]:o;if(!Array.isArray(t))return n;switch(t.length){case 1:return c(t[0])||n;case 2:return c(t[0],t[1])||n;case 4:return l(t[0],t[1],t[2],t[3])||n}return n}(t,null):function(t,n){var r=arguments.length>2&&void 0!==arguments[2]?arguments[2]:o;switch(t){case"linear":return o;case"steps":return c(n.steps||1,n.jump||0)||r;case"bezier":case"cubic-bezier":return l(n.x1||0,n.y1||0,n.x2||0,n.y2||0)||r}return r}(t.type,t.value,null):null}function At(t,n,r){var e=arguments.length>3&&void 0!==arguments[3]&&arguments[3],i=n.length-1;if(t<=n[0].t)return e?[0,0,n[0].v]:n[0].v;if(t>=n[i].t)return e?[i,1,n[i].v]:n[i].v;var u,o=n[0],a=null;for(u=1;u<=i;u++){if(!(t>n[u].t)){a=n[u];break}o=n[u]}return null==a?e?[i,1,n[i].v]:n[i].v:o.t===a.t?e?[u,1,a.v]:a.v:(t=(t-o.t)/(a.t-o.t),o.e&&(t=o.e(t)),e?[u,t,r(t,o.v,a.v)]:r(t,o.v,a.v))}function xt(t,n){var r=arguments.length>2&&void 0!==arguments[2]?arguments[2]:null;return t&&t.length?"function"!=typeof n?null:("function"!=typeof r&&(r=null),function(e){var i=At(e,t,n);return null!=i&&r&&(i=r(i)),i}):null}function kt(t,n){return t.t-n.t}function St(n,r,e,i,u){var o,a="@"===e[0],l="#"===e[0],f=dt[e],s=y;switch(a?(o=e.substr(1),e=o.replace(mt,pt)):l&&(e=e.substr(1)),t(f)){case"function":if(s=f(i,u,At,wt,e,a,r,n),l)return s;break;case"string":s=xt(i,bt(f));break;case"object":if((s=xt(i,bt(f.i),f.f))&&"function"==typeof f.u)return f.u(r,s,e,a,n)}return s?function(t,n,r){if(arguments.length>3&&void 0!==arguments[3]&&arguments[3])return t instanceof gt?function(e){return t.style(n,r(e))}:function(e){return t.style[n]=r(e)};if(Array.isArray(n)){var e=n.length;return function(i){var u=r(i);if(null==u)for(var o=0;o<e;o++)t[o].removeAttribute(n);else for(var a=0;a<e;a++)t[a].setAttribute(n,u)}}return function(e){var i=r(e);null==i?t.removeAttribute(n):t.setAttribute(n,i)}}(r,e,s,a):null}function _t(n,r,e,i){if(!i||"object"!==t(i))return null;var u=null,o=null;return Array.isArray(i)?o=function(t){if(!t||!t.length)return null;for(var n=0;n<t.length;n++)t[n].e&&(t[n].e=wt(t[n].e));return t.sort(kt)}(i):(o=i.keys,u=i.data||null),o?St(n,r,e,o,u):null}function Mt(t,n,r){if(!r)return null;var e=[];for(var i in r)if(r.hasOwnProperty(i)){var u=_t(t,n,i,r[i]);u&&e.push(u)}return e.length?e:null}function It(t,n){if(!n.duration||n.duration<0)return null;var r=function(t,n){if(!n)return null;var r=[];if(Array.isArray(n))for(var e=n.length,i=0;i<e;i++){var u=n[i];if(2===u.length){var o=null;if("string"==typeof u[0])o=t.getElementById(u[0]);else if(Array.isArray(u[0])){o=[];for(var a=0;a<u[0].length;a++)if("string"==typeof u[0][a]){var l=t.getElementById(u[0][a]);l&&o.push(l)}o=o.length?1===o.length?o[0]:new gt(o):null}if(o){var f=Mt(t,o,u[1]);f&&(r=r.concat(f))}}}else for(var s in n)if(n.hasOwnProperty(s)){var c=t.getElementById(s);if(c){var v=Mt(t,c,n[s]);v&&(r=r.concat(v))}}return r.length?r:null}(t,n.elements);return r?function(t,n){var r=arguments.length>2&&void 0!==arguments[2]?arguments[2]:1/0,e=arguments.length>3&&void 0!==arguments[3]?arguments[3]:1,i=arguments.length>4&&void 0!==arguments[4]&&arguments[4],u=arguments.length>5&&void 0!==arguments[5]?arguments[5]:1,o=t.length,a=e>0?n:0;i&&r%2==0&&(a=n-a);var l=null;return function(f,s){var c=f%n,v=1+(f-c)/n;s*=e,i&&v%2==0&&(s=-s);var h=!1;if(v>r)c=a,h=!0,-1===u&&(c=e>0?0:n);else if(s<0&&(c=n-c),c===l)return!1;l=c;for(var y=0;y<o;y++)t[y](c);return h}}(r,n.duration,n.iterations||1/0,n.direction||1,!!n.alternate,n.fill||1):null}var Et=function(){function t(r){var e=arguments.length>1&&void 0!==arguments[1]?arguments[1]:{};n(this,t),this._id=0,this._running=!1,this._animations=r,this.direction=e.direction||1,this.speed=e.speed||1,this.fps=e.fps||100,this.offset=e.offset||0}return e(t,[{key:"_start",value:function(){var t=this,n=arguments.length>0&&void 0!==arguments[0]?arguments[0]:0,r=-1/0,e=null,i={},u=function u(o){t._running=!0,null==e&&(e=o);var a=Math.round((o-e+n)*t.speed),l=t.fps?1e3/t.fps:0;if(a>r+l){t.offset=a,r=a;for(var f=t._animations,s=f.length,c=0,v=0;v<s;v++)i[v]?c++:(i[v]=f[v](a,t.direction),i[v]&&c++);if(c===s)return void t._stop()}t._id=window.requestAnimationFrame(u)};this._id=window.requestAnimationFrame(u)}},{key:"_stop",value:function(){this._id&&window.cancelAnimationFrame(this._id),this._running=!1}},{key:"play",value:function(){this._running||this._start(this.offset)}},{key:"stop",value:function(){this._stop(),this.offset=0;var t=this.direction,n=this._animations;requestAnimationFrame((function(){for(var r=0;r<n.length;r++)n[r](0,t)}))}},{key:"restart",value:function(){this._stop(),this.offset=0,this._start()}},{key:"pause",value:function(){this._stop()}},{key:"reverse",value:function(){this.direction=-this.direction}}],[{key:"build",value:function(n){if(!(n=function(t){if(!t||!t.root||!Array.isArray(t.animations))return null;var n=window.document.getElementById(t.root);if(!n)return null;var r=t.animations.map((function(t){return It(n,t)})).filter((function(t){return!!t}));return r.length?{element:n,animations:r,options:t.options||void 0}:null}(n)))return null;var r=n.element,e=n.options||{},i=new t(n.animations,n.options);return function(t,n,r){var e=arguments.length>3&&void 0!==arguments[3]?arguments[3]:null;if("click"===r){return void n.addEventListener("click",(function r(){n.removeEventListener("click",r),t.play()}))}if("hover"===r)return n.addEventListener("mouseenter",(function(){return t.play()})),void n.addEventListener("mouseleave","freeze"===e?function(){return t.pause()}:function(){return t.stop()});t.play()}(i,r,e.start,e.hover),i}}]),t}();return function(){for(var t=0,n=["ms","moz","webkit","o"],r=0;r<n.length&&!window.requestAnimationFrame;++r)window.requestAnimationFrame=window[n[r]+"RequestAnimationFrame"],window.cancelAnimationFrame=window[n[r]+"CancelAnimationFrame"]||window[n[r]+"CancelRequestAnimationFrame"];window.requestAnimationFrame||(window.requestAnimationFrame=function(n){var r=Date.now(),e=Math.max(0,16-(r-t)),i=window.setTimeout((function(){n(r+e)}),e);return t=r+e,i},window.cancelAnimationFrame=window.clearTimeout)}(),Et}));
__SVGATOR_PLAYER__.build({"root":"edvfr7020vsm1","animations":[{"duration":2500,"direction":1,"iterations":1,"fill":1,"alternate":false,"elements":{"edvfr7020vsm2":{"transform":{"data":{"t":{"x":-579.4500122100001,"y":-86.825000765}},"keys":{"o":[{"t":1700,"v":{"x":575.4500122100001,"y":86.825000765,"type":"corner"},"e":[1,0,1,2]},{"t":1900,"v":{"x":579.4500122100001,"y":86.825000765,"type":"corner"},"e":[1,0,1,2]},{"t":2100,"v":{"x":573.4500122100001,"y":86.825000765,"type":"corner"},"e":[1,0,1,2]},{"t":2300,"v":{"x":575.4500122100001,"y":86.825000765,"type":"corner"},"e":[1,0,1,2]},{"t":2500,"v":{"x":579.4500122100001,"y":86.825000765,"type":"corner"},"e":[1,0,1,2]}]}}},"edvfr7020vsm4":{"transform":{"data":{"o":{"x":575.5499877899999,"y":78.465000155,"type":"corner"},"t":{"x":-575.5499877899999,"y":-78.465000155}},"keys":{"r":[{"t":1800,"v":-0.32427109318442016},{"t":2000,"v":-5.453183932658763},{"t":2200,"v":9.242330200073821},{"t":2400,"v":0}]}}},"edvfr7020vsm16":{"opacity":[{"t":1200,"v":0},{"t":1500,"v":1,"e":[0,0,0.58,1]}]},"edvfr7020vsm17":{"opacity":[{"t":1400,"v":0},{"t":1700,"v":1,"e":[0,0,0.58,1]}]},"edvfr7020vsm18":{"opacity":[{"t":1000,"v":0,"e":[0.47,0,0.745,0.715]},{"t":1300,"v":1,"e":[0,0,0.58,1]}]},"edvfr7020vsm27":{"transform":{"keys":{"o":[{"t":0,"v":{"x":-55.1,"y":5.590000169999998,"type":"corner"},"e":[0.25,1,0.25,1]},{"t":2500,"v":{"x":0,"y":0,"type":"corner"},"e":[0.25,1,0.25,1]}],"s":[{"t":0,"v":{"x":1,"y":1}},{"t":300,"v":{"x":1,"y":1}},{"t":800,"v":{"x":1.2702089257397173,"y":1.2255771959686144}}]}},"opacity":[{"t":0,"v":0,"e":[0,0,0.58,1]},{"t":400,"v":1,"e":[0,0,0.58,1]}]},"edvfr7020vsm28":{"d":[{"t":0,"v":["M",167.596951,69.41658744020913,"C",167.806951,69.06493405841192,168.296951,68.26115490001828,167.13695099999998,68.41186349221712,"L",160.70695099999998,68.47214692909662,"C",160.536951,68.47214692909662,160.14695099999997,68.47214692909662,159.94695099999998,69.17545369269105,"L",155.35695099999998,80.94077112367746,"C",155.266951,81.30247174495457,155.066951,82.15648710074777,155.596951,82.16653434022774,"L",160.51695099999998,82.03592022698874,"L",156.146951,93.56010391045709,"L",165.296951,80.00637785204486,"C",165.296951,80.00637785204486,165.746951,79.34326004637018,165.036951,79.4135907227296,"L",160.496951,79.49396863856896,"Z"]},{"t":300,"v":["M",167.596951,69.22005007562183,"C",167.806951,68.93593396406445,168.296951,68.28652570907613,167.13695099999998,68.40828975688648,"L",160.70695099999998,68.45699537601058,"C",160.536951,68.45699537601058,160.14695099999997,68.45699537601058,159.94695099999998,69.02522759912534,"L",155.35695099999998,78.53094093151641,"C",155.266951,78.82317464626114,155.066951,79.51317091718617,155.596951,79.52128852037357,"L",160.51695099999998,79.41575967893795,"L",156.146951,88.72665053483253,"L",165.296951,77.7760038350925,"C",165.296951,77.7760038350925,165.746951,77.2402420247272,165.036951,77.29706524703865,"L",160.496951,77.36200607253748,"Z"]},{"t":400,"v":["M",163.9086720482772,69.02318943970292,"C",164.05597031327858,68.80672168598099,164.39966626494862,68.31193824890234,163.58601870589308,68.40471014335462,"L",159.07588611561084,68.44181890113549,"C",158.95664466299064,68.44181890113549,158.68309074227363,68.44181890113549,158.54280668036753,68.87475440857935,"L",155.32328745962172,76.11714696881819,"C",155.26015963176405,76.33979951550356,155.1198755698579,76.86550691739964,155.49162833390915,76.87169171036314,"L",158.94261625680002,76.79128940183784,"L",155.877409504151,83.88524693095312,"L",162.29540533635668,75.54196122321423,"C",162.29540533635668,75.54196122321423,162.61104447564546,75.13376488762438,162.1130360558787,75.1770584383687,"L",158.92858785060943,75.22653678207661,"Z"],"e":[0.55,0.085,0.68,3]},{"t":500,"v":["M",167.596951,68.85587134117998,"C",167.806951,68.69690007246331,168.296951,68.33353717253941,167.13695099999998,68.40166771627516,"L",160.70695099999998,68.42891993376942,"C",160.536951,68.42891993376942,160.14695099999997,68.42891993376942,159.94695099999998,68.7468624712028,"L",155.35695099999998,74.06558691883885,"C",155.266951,74.22910022380462,155.066951,74.61517330497378,155.596951,74.61971534122284,"L",160.51695099999998,74.56066886998521,"L",156.146951,79.77038444764405,"L",165.296951,73.64317754767734,"C",165.296951,73.64317754767734,165.746951,73.34340315524014,165.036951,73.37519740898347,"L",160.496951,73.41153369897586,"Z"]},{"t":1000,"v":["M",167.596951,69.41658744020913,"C",167.806951,69.06493405841192,168.296951,68.26115490001828,167.13695099999998,68.41186349221712,"L",160.70695099999998,68.47214692909662,"C",160.536951,68.47214692909662,160.14695099999997,68.47214692909662,159.94695099999998,69.17545369269105,"L",155.35695099999998,80.94077112367746,"C",155.266951,81.30247174495457,155.066951,82.15648710074777,155.596951,82.16653434022774,"L",160.51695099999998,82.03592022698874,"L",156.146951,93.56010391045709,"L",165.296951,80.00637785204486,"C",165.296951,80.00637785204486,165.746951,79.34326004637018,165.036951,79.4135907227296,"L",160.496951,79.49396863856896,"Z"],"e":[0.94,0.755,0.68,3]}],"transform":{"data":{"r":-0.29513497726109045,"s":{"x":1.015395927221823,"y":0.45184637132662575},"t":{"x":-81.135532845,"y":-33.10573987}},"keys":{"o":[{"t":0,"v":{"x":-2.1372482005000055,"y":7.719384099999974,"type":"corner"}},{"t":300,"v":{"x":-1.8826755113500047,"y":8.474420490999961,"type":"corner"}},{"t":700,"v":{"x":-1.5432452591500037,"y":8.3093842661428,"type":"corner"}},{"t":1000,"v":{"x":-1.2886725700000028,"y":8.30938426999993,"type":"corner"}}]}},"opacity":[{"t":0,"v":0.6,"e":[0.455,0.03,0.515,0.955]},{"t":300,"v":0.8,"e":[0.455,0.03,0.515,0.955]},{"t":500,"v":0.14},{"t":700,"v":0.9},{"t":800,"v":0.18},{"t":1000,"v":1,"e":[0.455,0.03,0.515,0.955]}]},"edvfr7020vsm29":{"opacity":[{"t":0,"v":0},{"t":300,"v":0.99},{"t":700,"v":0.85},{"t":1000,"v":1}]}}}],"options":{"start":"load","hover":"freeze"}})]]></script></svg>