<svg id="exos8vulc3cc1" xmlns="http://www.w3.org/2000/svg" xmlns:xlink="http://www.w3.org/1999/xlink"
     viewBox="0 0 1998.090000 434" shape-rendering="geometricPrecision" text-rendering="geometricPrecision">
    <g id="exos8vulc3cc2"
       transform="matrix(0.30000000000000 0 0 0.30000000000000 699.03750182999966 151.81910972499995)" opacity="0">
        <path id="exos8vulc3cc3"
              d="M1217.600000,227.500000C1216.740000,231.190000,1215.990000,234.900000,1215,238.550000C1207.450000,266.620000,1183.210000,287.230000,1154.800000,291.420000C1119.070000,296.690000,1080.360000,273.180000,1073.420000,231.490000C1071.994332,224.118672,1072.856178,216.487673,1075.890000,209.620000C1093.770000,169.470000,1111.250000,129.140000,1128.890000,88.870000C1129.560000,87.340000,1130.150000,85.770000,1130.890000,83.870000C1129.340000,83.760000,1128.130000,83.610000,1126.890000,83.610000Q1079.080000,83.610000,1031.280000,83.530000C1028,83.530000,1026.790000,84.370000,1025.990000,87.720000C1023.731099,97.821239,1017.047595,106.370249,1007.790000,111C1005.330000,112.290000,1004.250000,113.720000,1004.270000,116.480000C1004.370000,128.480000,1004.320000,140.480000,1004.320000,152.550000L1004.320000,373.750000L1061.270000,373.750000C1062.682354,373.679722,1064.098118,373.770304,1065.490000,374.020000C1069.958525,375.037500,1072.963526,379.231624,1072.490000,383.790000C1072.163936,388.412015,1068.219374,391.935528,1063.590000,391.740000C1043.640000,391.830000,1023.690000,391.740000,1003.750000,391.740000L966.460000,391.740000C953.460000,391.740000,940.460000,391.840000,927.460000,391.740000C921.940000,391.690000,918.270000,387.800000,918.370000,382.640000C918.470000,377.640000,922.370000,373.800000,927.840000,373.760000C942.580000,373.670000,957.310000,373.760000,972.040000,373.760000L977.290000,373.760000L977.290000,369Q977.290000,243,977.360000,116.940000C977.360000,113.880000,976.570000,112.300000,973.690000,110.780000C963,105.140000,956.830000,96.020000,954.690000,83.850000L868.890000,83.850000C869.540000,85.460000,870.060000,86.850000,870.650000,88.180000L918.650000,197.670000C919.367071,199.662156,920.232842,201.597606,921.240000,203.460000C930.560000,218.300000,927.970000,233.330000,921.530000,248.100000C912.547620,269.174683,894.140200,284.769634,871.876088,290.167293C849.611975,295.564952,826.106426,290.131283,808.470000,275.510000C794.470000,264.150000,786.340000,249.250000,783.300000,231.510000C783.068554,230.435833,782.781501,229.374404,782.440000,228.330000L782.440000,217.330000C782.550000,217.240000,782.710000,217.170000,782.760000,217.060000L831.760000,105.230000C834.760000,98.230000,837.760000,91.230000,840.980000,83.620000L824.380000,83.620000C820.060000,83.620000,816.570000,82.010000,814.880000,77.820000C811,68.280000,816,60.900000,826.160000,60.900000L955.780000,60.900000C958.080000,60.900000,959.780000,60.740000,961.430000,58.450000C976.190000,37.590000,1005.660000,37.520000,1020.590000,58.260000C1021.674542,60.050954,1023.671816,61.082428,1025.760000,60.930000C1040.760000,60.830000,1055.760000,60.930000,1070.760000,60.930000L1174.880000,60.930000C1178.980000,60.930000,1182.490000,61.760000,1184.640000,65.580000C1189.640000,74.450000,1184.370000,83.660000,1174.310000,83.700000L1158.800000,83.700000C1159.800000,85.970000,1160.380000,87.530000,1161.060000,89.060000Q1176.820000,124.970000,1192.610000,160.870000Q1205.080000,189.160000,1217.610000,217.400000ZM1145.050000,97.090000C1128.200000,135.440000,1111.800000,172.740000,1095.280000,210.310000L1194.570000,210.310000C1178.080000,172.600000,1161.750000,135.260000,1145.050000,97.090000ZM854.930000,97.090000L805.160000,210.250000L904.320000,210.250000Z"
              fill="rgb(65,77,80)" stroke="none" stroke-width="1"/>
        <path id="exos8vulc3cc4"
              d="M1145.050000,97.090000C1161.750000,135.260000,1178.050000,172.600000,1194.570000,210.310000L1095.280000,210.310000C1111.800000,172.740000,1128.200000,135.440000,1145.050000,97.090000Z"
              fill="none" stroke="none" stroke-width="1"/>
    </g>
    <g id="exos8vulc3cc5" opacity="0">
        <rect id="exos8vulc3cc6" width="520" height="32.690000" rx="0" ry="0"
              transform="matrix(1 0 0 1 0 401.31000000000000)" fill="rgb(65,77,80)" stroke="none" stroke-width="1"/>
        <path id="exos8vulc3cc7"
              d="M115.240000,64.700000L27,64.700000L27,403.930000L165.470000,403.930000L165.470000,304.780000L234.890000,304.780000L234.890000,403.930000L358.150000,403.930000L358.150000,64.700000L155.310000,64.700000L155.930000,104.010000L176.360000,130.420000L165.470000,95.420000L234.890000,95.420000L234.890000,167.420000L194.400000,167.420000L204.190000,183.560000L210.250000,199.670000L234.890000,199.670000L234.890000,265.100000L242.890000,286.430000L256.270000,318.840000L225.610000,271.670000L165.470000,271.670000L165.470000,199.670000L182.790000,199.670000L166.240000,169.370000L138.580000,123.570000L133.050000,121.190000L133.050000,167.420000L63.630000,167.420000L63.630000,95.420000L92.700000,94.500000ZM267,304.780000L336.410000,304.780000L336.410000,376.780000L267,376.780000ZM267,199.620000L336.410000,199.620000L336.410000,271.620000L267,271.620000ZM267,95.370000L336.410000,95.370000L336.410000,167.370000L267,167.370000ZM63.630000,304.780000L133.050000,304.780000L133.050000,376.780000L63.630000,376.780000ZM63.630000,199.620000L133.050000,199.620000L133.050000,271.620000L63.630000,271.620000Z"
              fill="rgb(65,77,80)" stroke="none" stroke-width="1"/>
        <rect id="exos8vulc3cc8" width="70.430000" height="39.410000" rx="0" ry="0"
              transform="matrix(1 0 0 1 257.74000000000001 0)" fill="rgb(65,77,80)" stroke="none" stroke-width="1"/>
        <polygon id="exos8vulc3cc9"
                 points="82.740000,23.840000 114.620000,42.140000 115.240000,59.440000 3.710000,59.440000 3.710000,23.840000 82.740000,23.840000"
                 fill="rgb(65,77,80)" stroke="none" stroke-width="1"/>
        <polygon id="exos8vulc3cc10"
                 points="350.440000,146.290000 504.260000,146.290000 476.930000,116.590000 350.440000,118.190000 350.440000,146.290000"
                 fill="rgb(65,77,80)" stroke="none" stroke-width="1"/>
        <path id="exos8vulc3cc11"
              d="M353.320000,153.310000L353.320000,401.310000L488.530000,401.310000L488.530000,153.310000ZM454.540000,261.070000L385.120000,261.070000L385.120000,189.070000L454.540000,189.070000Z"
              fill="rgb(65,77,80)" stroke="none" stroke-width="1"/>
        <polygon id="exos8vulc3cc12"
                 points="154.870000,31.660000 150.210000,23.840000 257.740000,23.840000 257.740000,32.550000 328.170000,32.550000 328.170000,23.840000 381.390000,23.840000 381.390000,59.440000 155.310000,59.440000 154.870000,31.660000"
                 fill="rgb(65,77,80)" stroke="none" stroke-width="1"/>
    </g>
    <g id="exos8vulc3cc13" opacity="0">
        <path id="exos8vulc3cc14"
              d="M1653.310000,218.220000L1653.310000,218.220000C1653.315565,225.119028,1647.738975,230.722450,1640.840000,230.750000C1619.240000,230.870000,1597.970000,231.140000,1576.760000,230.140000C1574.930000,230.050000,1573.170000,228.650000,1571.440000,226.720000C1566.915218,221.722635,1567.190054,214.031645,1572.060000,209.370000C1573.890000,207.630000,1575.750000,206.370000,1577.660000,206.270000C1598.530000,205.270000,1619.450000,205.570000,1640.840000,205.690000C1647.738975,205.717550,1653.315565,211.320972,1653.310000,218.220000Z"
              fill="rgb(65,77,80)" stroke="none" stroke-width="1"/>
        <path id="exos8vulc3cc15"
              d="M1684.790000,311C1692.230000,318.410000,1686.870000,331.150000,1676.360000,331.150000L1578.050000,331.150000C1569.600000,331.150000,1563.760000,326.400000,1564.800000,318.380000C1566,309.080000,1573,306.840000,1577.600000,306.690000C1610.120000,305.690000,1642.700000,306.010000,1675.250000,306.330000C1678.430000,306.330000,1682.250000,308.510000,1684.610000,310.850000Z"
              fill="rgb(65,77,80)" stroke="none" stroke-width="1"/>
        <path id="exos8vulc3cc16"
              d="M1660.220000,381.300000C1633.470000,381.300000,1606.730000,381.220000,1579.980000,381.300000C1571.050000,381.300000,1563.560000,379.170000,1563.670000,368.660000C1563.780000,358.150000,1571.270000,356.120000,1580.180000,356.130000Q1661.040000,356.270000,1741.900000,356.130000C1750.760000,356.130000,1758.630000,357.960000,1758.900000,368.200000C1759.200000,379.260000,1751.100000,381.390000,1741.690000,381.340000C1714.540000,381.190000,1687.380000,381.300000,1660.220000,381.300000Z"
              fill="rgb(65,77,80)" stroke="none" stroke-width="1"/>
        <path id="exos8vulc3cc17"
              d="M1660.360000,264.490000L1660.440000,264.740000C1661.671234,268.512853,1661.023744,272.647013,1658.697959,275.862767C1656.372173,279.078522,1652.648654,280.987951,1648.680000,281C1624.540000,281.100000,1600.930000,281.280000,1577.370000,280.400000C1575.470000,280.330000,1573.620000,278.980000,1571.780000,277.130000C1567.101687,272.379077,1567.022138,264.777790,1571.600000,259.930000C1573.410000,258.020000,1575.240000,256.620000,1577.130000,256.530000C1600.780000,255.530000,1624.490000,255.860000,1648.580000,255.950000C1653.937613,255.957935,1658.686289,259.400524,1660.360000,264.490000Z"
              fill="rgb(65,77,80)" stroke="none" stroke-width="1"/>
        <path id="exos8vulc3cc18"
              d="M1989,384.860000Q1950.590000,346.130000,1912.090000,307.520000C1910.090000,305.520000,1907.980000,303.090000,1905.440000,301.960000C1899.860000,299.500000,1893.970000,297.660000,1887.970000,295.500000C1923.580000,223.150000,1915.120000,166.650000,1864.970000,129.110000C1820.070000,95.480000,1756.870000,98.790000,1716.380000,136.790000C1674.920000,175.730000,1666.760000,237.110000,1696.990000,284.350000C1712.150000,308.100000,1733.240000,324.630000,1760.150000,333.100000C1798.150000,345.100000,1833.300000,337.410000,1866.690000,314.930000C1869.990000,318.810000,1875.120000,322.090000,1874.990000,325.150000C1874.420000,338.610000,1885.550000,343.450000,1892.700000,350.830000C1913.920000,372.730000,1935.700000,394.050000,1957.430000,415.520000C1969.430000,427.380000,1981.810000,428.610000,1991.520000,419.140000C2001,409.860000,2000.210000,396.190000,1989,384.860000ZM1794.530000,308.150000C1747.330000,307.660000,1708.700000,268.250000,1709.330000,221.150000L1709.330000,221.150000C1709.940000,174.430000,1748.760000,136.210000,1795.400000,136.310000C1842.630000,136.440000,1881.490000,175.510000,1881.240000,222.690000C1880.990000,269.870000,1841.760000,308.640000,1794.560000,308.150000Z"
              fill="rgb(65,77,80)" stroke="none" stroke-width="1"/>
        <path id="exos8vulc3cc19"
              d="M1795.460000,136.310000C1748.820000,136.210000,1710,174.430000,1709.390000,221.150000L1709.390000,221.150000C1708.760000,268.250000,1747.390000,307.660000,1794.590000,308.150000C1841.790000,308.640000,1881.080000,269.870000,1881.330000,222.690000C1881.580000,175.510000,1842.690000,136.440000,1795.460000,136.310000ZM1800.680000,260.710000L1800.680000,265.430000C1800.713296,269.330841,1797.580793,272.521518,1793.680000,272.560000L1793.550000,272.560000C1791.648354,272.584020,1789.815068,271.851552,1788.453521,270.523763C1787.091974,269.195973,1786.313720,267.381650,1786.290000,265.480000L1786.290000,260.830000C1781.821950,260.399301,1777.428634,259.390888,1773.220000,257.830000C1769.220000,256.260000,1765.960000,253.600000,1765.960000,249.240000C1765.886965,247.420239,1766.540552,245.646123,1767.776711,244.308671C1769.012869,242.971219,1770.730128,242.180216,1772.550000,242.110000L1772.860000,242.110000C1775.280000,242.110000,1778.540000,243.810000,1781.860000,244.770000C1785.642382,246.063056,1789.603347,246.758081,1793.600000,246.830000C1800.860000,246.830000,1805.090000,243.930000,1805.090000,238.240000C1805.090000,231.580000,1796.740000,228.240000,1788.150000,224.810000C1777.750000,220.570000,1766.370000,215.810000,1766.370000,200.730000C1766.370000,190.570000,1773.060000,182.470000,1786.370000,180.410000L1786.370000,175.410000C1786.377925,173.504908,1787.143706,171.681294,1788.498305,170.341704C1789.852905,169.002114,1791.684938,168.256698,1793.590000,168.270000L1793.590000,168.270000C1797.492501,168.236679,1800.686045,171.367604,1800.730000,175.270000L1800.730000,180.270000C1805.065170,180.718686,1809.329758,181.692489,1813.430000,183.170000C1817.430000,184.750000,1820.690000,187.530000,1820.690000,191.760000C1820.690000,195.520000,1818.150000,198.900000,1813.790000,198.900000C1811.370000,198.900000,1808.110000,197.210000,1804.790000,196.240000C1801.173731,194.958235,1797.375814,194.262794,1793.540000,194.180000C1786.160000,194.180000,1782.650000,196.600000,1782.650000,200.720000C1782.650000,206.530000,1789.420000,208.460000,1797.530000,211.850000C1808.180000,216.210000,1821.250000,222.260000,1821.250000,238.230000C1821.250000,249.820000,1814.110000,258.650000,1800.680000,260.710000Z"
              fill="none" stroke="none" stroke-width="1"/>
        <path id="exos8vulc3cc20"
              d="M1797.530000,211.820000C1789.420000,208.430000,1782.650000,206.500000,1782.650000,200.690000C1782.650000,196.570000,1786.160000,194.150000,1793.540000,194.150000C1797.375814,194.232794,1801.173731,194.928235,1804.790000,196.210000C1808.110000,197.210000,1811.370000,198.870000,1813.790000,198.870000C1818.150000,198.870000,1820.690000,195.490000,1820.690000,191.730000C1820.690000,187.500000,1817.430000,184.730000,1813.430000,183.140000C1809.329758,181.662489,1805.065170,180.688686,1800.730000,180.240000L1800.730000,175.240000C1800.686045,171.337604,1797.492501,168.206679,1793.590000,168.240000L1793.590000,168.240000C1791.684938,168.226698,1789.852905,168.972114,1788.498305,170.311704C1787.143706,171.651294,1786.377925,173.474908,1786.370000,175.380000L1786.370000,180.380000C1773.040000,182.440000,1766.370000,190.540000,1766.370000,200.700000C1766.370000,215.780000,1777.750000,220.540000,1788.150000,224.780000C1796.740000,228.210000,1805.090000,231.550000,1805.090000,238.210000C1805.090000,243.900000,1800.860000,246.800000,1793.600000,246.800000C1789.603347,246.728081,1785.642382,246.033056,1781.860000,244.740000C1778.590000,243.740000,1775.330000,242.080000,1772.860000,242.080000L1772.550000,242.080000C1770.730128,242.150216,1769.012869,242.941219,1767.776711,244.278671C1766.540552,245.616123,1765.886965,247.390239,1765.960000,249.210000C1765.960000,253.570000,1769.220000,256.210000,1773.220000,257.800000C1777.428634,259.360888,1781.821950,260.369301,1786.290000,260.800000L1786.290000,265.450000C1786.313720,267.351650,1787.091974,269.165973,1788.453521,270.493763C1789.815068,271.821552,1791.648354,272.554020,1793.550000,272.530000L1793.680000,272.530000C1797.580793,272.491518,1800.713296,269.300841,1800.680000,265.400000L1800.680000,260.680000C1814.110000,258.620000,1821.250000,249.790000,1821.250000,238.170000C1821.250000,222.230000,1808.180000,216.180000,1797.530000,211.820000Z"
              fill="rgb(65,77,80)" stroke="none" stroke-width="1"/>
        <path id="exos8vulc3cc21"
              d="M1664,168.310000L1664,168.310000C1663.989156,175.202250,1658.422119,180.796074,1651.530000,180.840000C1629.920000,180.950000,1597.650000,181.220000,1576.440000,180.220000C1574.620000,180.130000,1572.860000,178.730000,1571.120000,176.810000C1566.601999,171.804703,1566.881073,164.114643,1571.750000,159.450000C1573.580000,157.710000,1575.440000,156.450000,1577.350000,156.350000C1598.220000,155.350000,1630.140000,155.660000,1651.520000,155.770000C1658.419922,155.808484,1663.994609,161.409972,1664,168.310000Z"
              fill="rgb(65,77,80)" stroke="none" stroke-width="1"/>
        <path id="exos8vulc3cc22"
              d="M1696,122.310000L1696,122.310000C1695.989156,129.202250,1690.422119,134.796074,1683.530000,134.840000C1661.920000,134.950000,1656.650000,135.220000,1635.440000,134.220000C1633.620000,134.130000,1631.860000,132.730000,1630.120000,130.810000C1625.601999,125.804703,1625.881073,118.114643,1630.750000,113.450000C1632.580000,111.710000,1634.440000,110.450000,1636.350000,110.350000C1657.220000,109.350000,1662.140000,109.660000,1683.520000,109.770000C1690.419922,109.808484,1695.994609,115.409972,1696,122.310000Z"
              fill="rgb(65,77,80)" stroke="none" stroke-width="1"/>
        <path id="exos8vulc3cc23"
              d="M1567.850000,433.900000C1531.620000,433.900000,1510.300000,412.690000,1510.230000,376.190000C1510.070000,290.920000,1510.300000,205.640000,1510.030000,120.370000C1510.030000,109.030000,1513.710000,100.570000,1521.920000,92.820000C1549.920000,66.460000,1577.370000,39.550000,1605.190000,13L1605.310000,12.880000C1612.527274,6.086876,1622.088994,2.343153,1632,2.430000L1795.630000,2.490000C1808.427978,2.391859,1820.935827,6.301217,1831.400000,13.670000C1840.030000,19.850000,1846.710000,28.060000,1849.580000,39.920000C1852.100000,50.290000,1851.710000,61.380000,1852.320000,72.170000C1852.320000,73.030000,1852.400000,73.890000,1852.430000,74.750000C1852.546623,78.831832,1850.673184,82.715947,1847.406148,85.165727C1844.139112,87.615508,1839.885659,88.325627,1836,87.070000L1836,87.070000C1830.760733,85.390736,1827.220509,80.501662,1827.260000,75C1827.320000,68.530000,1827.370000,62,1827.130000,55.580000C1826.580000,40.840000,1817.130000,28.700000,1802.720000,28.500000C1746.850000,27.720000,1690.970000,28.180000,1633.570000,28.180000C1633.570000,40.640000,1633.640000,52.180000,1633.570000,63.790000C1633.320000,99.460000,1611.440000,121.520000,1575.700000,122.020000C1562.870000,122.200000,1550.020000,122.020000,1536.430000,122.020000C1536.170000,127.390000,1535.810000,131.460000,1535.810000,135.530000L1535.810000,373.800000C1535.810000,399.310000,1545.210000,408.800000,1570.360000,408.850000L1802.300000,407.930000C1816.710000,407.730000,1826.160000,395.590000,1826.710000,380.850000C1826.950000,374.390000,1826.900000,367.850000,1826.840000,361.430000C1826.791545,355.943429,1830.310093,351.060380,1835.530000,349.370000L1835.530000,349.370000C1839.419250,348.093915,1843.686350,348.793070,1846.965003,351.243599C1850.243656,353.694128,1852.122522,357.588589,1852,361.680000C1852,362.550000,1851.940000,363.410000,1851.890000,364.260000C1851.280000,375.050000,1851.670000,386.140000,1849.150000,396.510000C1846.270000,408.380000,1839.600000,416.590000,1830.970000,422.770000C1820.499228,430.154000,1807.982262,434.080411,1795.170000,434Z"
              fill="rgb(65,77,80)" stroke="none" stroke-width="1"/>
    </g>
    <script><![CDATA[!function(t,n){"object"==typeof exports&&"undefined"!=typeof module?module.exports=n():"function"==typeof define&&define.amd?define(n):(t=t||self).__SVGATOR_PLAYER__=n()}(this,(function(){"use strict";function t(n){return(t="function"==typeof Symbol&&"symbol"==typeof Symbol.iterator?function(t){return typeof t}:function(t){return t&&"function"==typeof Symbol&&t.constructor===Symbol&&t!==Symbol.prototype?"symbol":typeof t})(n)}function n(t,n){if(!(t instanceof n))throw new TypeError("Cannot call a class as a function")}function r(t,n){for(var r=0;r<n.length;r++){var e=n[r];e.enumerable=e.enumerable||!1,e.configurable=!0,"value"in e&&(e.writable=!0),Object.defineProperty(t,e.key,e)}}function e(t,n,e){return n&&r(t.prototype,n),e&&r(t,e),t}var i=1e-5,u=Math.abs;function o(t){return t}function a(t,n,r){var e=1-r;return 3*r*e*(t*e+n*r)+r*r*r}function l(){var t=arguments.length>0&&void 0!==arguments[0]?arguments[0]:0,n=arguments.length>1&&void 0!==arguments[1]?arguments[1]:0,r=arguments.length>2&&void 0!==arguments[2]?arguments[2]:1,e=arguments.length>3&&void 0!==arguments[3]?arguments[3]:1;return t<0||t>1||r<0||r>1?null:u(t-n)<=i&&u(r-e)<=i?o:function(o){if(o<=0)return t>0?o*n/t:0===n&&r>0?o*e/r:0;if(o>=1)return r<1?1+(o-1)*(e-1)/(r-1):1===r&&t<1?1+(o-1)*(n-1)/(t-1):1;for(var l,f=0,s=1;f<s;){var c=a(t,r,l=(f+s)/2);if(u(o-c)<i)break;c<o?f=l:s=l}return a(n,e,l)}}function f(){return 1}function s(t){return 1===t?1:0}function c(){var t=arguments.length>0&&void 0!==arguments[0]?arguments[0]:1,n=arguments.length>1&&void 0!==arguments[1]?arguments[1]:0;if(1===t){if(0===n)return s;if(1===n)return f}var r=1/t;return function(t){return t>=1?1:(t+=n*r)-t%r}}function v(t){var n=arguments.length>1&&void 0!==arguments[1]?arguments[1]:2;if(Number.isInteger(t))return t;var r=Math.pow(10,n);return Math.round(t*r)/r}var h=Math.PI/180;function y(t,n,r){return t>=.5?r:n}function d(t,n,r){return 0===t||n===r?n:t*(r-n)+n}function g(t,n,r){var e=d(t,n,r);return e<=0?0:e}function m(t,n,r){return 0===t?n:1===t?r:{x:d(t,n.x,r.x),y:d(t,n.y,r.y)}}function p(t,n,r){return 0===t?n:1===t?r:{x:g(t,n.x,r.x),y:g(t,n.y,r.y)}}function b(t,n,r){var e=function(t,n,r){return Math.round(d(t,n,r))}(t,n,r);return e<=0?0:e>=255?255:e}function w(t,n,r){return 0===t?n:1===t?r:{r:b(t,n.r,r.r),g:b(t,n.g,r.g),b:b(t,n.b,r.b),a:d(t,null==n.a?1:n.a,null==r.a?1:r.a)}}function A(t,n,r){if(0===t)return n;if(1===t)return r;var e=n.length;if(e!==r.length)return y(t,n,r);for(var i=[],u=0;u<e;u++)i.push(w(t,n[u],r[u]));return i}function x(t,n,r){var e=n.length;if(e!==r.length)return y(t,n,r);for(var i=new Array(e),u=0;u<e;u++)i[u]=d(t,n[u],r[u]);return i}function k(t,n){for(var r=[],e=0;e<t;e++)r.push(n);return r}function S(t,n){if(--n<=0)return t;var r=(t=Object.assign([],t)).length;do{for(var e=0;e<r;e++)t.push(t[e])}while(--n>0);return t}var _=6,M=/\.0+$/g;function I(t){return Number.isInteger(t)?t+"":t.toFixed(_).replace(M,"")}function E(t){var n=arguments.length>1&&void 0!==arguments[1]?arguments[1]:" ";return t&&t.length?t.map(I).join(n):""}function F(t){return I(t.x)+","+I(t.y)}function B(t){return t?null==t.a||t.a>=1?"rgb("+t.r+","+t.g+","+t.b+")":"rgba("+t.r+","+t.g+","+t.b+","+t.a+")":"transparent"}var j={f:null,i:p,u:function(t,n){return function(r){var e=n(r);t.setAttribute("rx",I(e.x)),t.setAttribute("ry",I(e.y))}}},q={f:null,i:function(t,n,r){return 0===t?n:1===t?r:{width:g(t,n.width,r.width),height:g(t,n.height,r.height)}},u:function(t,n){return function(r){var e=n(r);t.setAttribute("width",I(e.width)),t.setAttribute("height",I(e.height))}}},P=Math.sin,O=Math.cos,z=Math.acos,L=Math.asin,C=Math.tan,R=Math.atan2,T=Math.PI/180,V=180/Math.PI,D=Math.sqrt,N=function(){function t(){var r=arguments.length>0&&void 0!==arguments[0]?arguments[0]:1,e=arguments.length>1&&void 0!==arguments[1]?arguments[1]:0,i=arguments.length>2&&void 0!==arguments[2]?arguments[2]:0,u=arguments.length>3&&void 0!==arguments[3]?arguments[3]:1,o=arguments.length>4&&void 0!==arguments[4]?arguments[4]:0,a=arguments.length>5&&void 0!==arguments[5]?arguments[5]:0;n(this,t),this.m=[r,e,i,u,o,a],this.i=null,this.w=null,this.s=null}return e(t,[{key:"point",value:function(t,n){var r=this.m;return{x:r[0]*t+r[2]*n+r[4],y:r[1]*t+r[3]*n+r[5]}}},{key:"translateSelf",value:function(){var t=arguments.length>0&&void 0!==arguments[0]?arguments[0]:0,n=arguments.length>1&&void 0!==arguments[1]?arguments[1]:0;if(!t&&!n)return this;var r=this.m;return r[4]+=r[0]*t+r[2]*n,r[5]+=r[1]*t+r[3]*n,this.w=this.s=this.i=null,this}},{key:"rotateSelf",value:function(){var t=arguments.length>0&&void 0!==arguments[0]?arguments[0]:0;if(t%=360){var n=P(t*=T),r=O(t),e=this.m,i=e[0],u=e[1];e[0]=i*r+e[2]*n,e[1]=u*r+e[3]*n,e[2]=e[2]*r-i*n,e[3]=e[3]*r-u*n,this.w=this.s=this.i=null}return this}},{key:"scaleSelf",value:function(){var t=arguments.length>0&&void 0!==arguments[0]?arguments[0]:1,n=arguments.length>1&&void 0!==arguments[1]?arguments[1]:1;if(1!==t||1!==n){var r=this.m;r[0]*=t,r[1]*=t,r[2]*=n,r[3]*=n,this.w=this.s=this.i=null}return this}},{key:"skewSelf",value:function(t,n){if(n%=360,(t%=360)||n){var r=this.m,e=r[0],i=r[1],u=r[2],o=r[3];t&&(t=C(t*T),r[2]+=e*t,r[3]+=i*t),n&&(n=C(n*T),r[0]+=u*n,r[1]+=o*n),this.w=this.s=this.i=null}return this}},{key:"resetSelf",value:function(){var t=arguments.length>0&&void 0!==arguments[0]?arguments[0]:1,n=arguments.length>1&&void 0!==arguments[1]?arguments[1]:0,r=arguments.length>2&&void 0!==arguments[2]?arguments[2]:0,e=arguments.length>3&&void 0!==arguments[3]?arguments[3]:1,i=arguments.length>4&&void 0!==arguments[4]?arguments[4]:0,u=arguments.length>5&&void 0!==arguments[5]?arguments[5]:0,o=this.m;return o[0]=t,o[1]=n,o[2]=r,o[3]=e,o[4]=i,o[5]=u,this.w=this.s=this.i=null,this}},{key:"recomposeSelf",value:function(){var t=arguments.length>0&&void 0!==arguments[0]?arguments[0]:null,n=arguments.length>1&&void 0!==arguments[1]?arguments[1]:null,r=arguments.length>2&&void 0!==arguments[2]?arguments[2]:null,e=arguments.length>3&&void 0!==arguments[3]?arguments[3]:null,i=arguments.length>4&&void 0!==arguments[4]?arguments[4]:null;return this.isIdentity||this.resetSelf(),t&&(t.x||t.y)&&this.translateSelf(t.x,t.y),n&&this.rotateSelf(n),r&&(r.x&&this.skewSelf(r.x,0),r.y&&this.skewSelf(0,r.y)),!e||1===e.x&&1===e.y||this.scaleSelf(e.x,e.y),i&&(i.x||i.y)&&this.translateSelf(i.x,i.y),this}},{key:"decompose",value:function(){var t=arguments.length>0&&void 0!==arguments[0]?arguments[0]:0,n=arguments.length>1&&void 0!==arguments[1]?arguments[1]:0,r=this.m,e=r[0]*r[0]+r[1]*r[1],i=[[r[0],r[1]],[r[2],r[3]]],u=D(e);if(0===u)return{origin:{x:r[4],y:r[5]},translate:{x:t,y:n},scale:{x:0,y:0},skew:{x:0,y:0},rotate:0};i[0][0]/=u,i[0][1]/=u;var o=r[0]*r[3]-r[1]*r[2]<0;o&&(u=-u);var a=i[0][0]*i[1][0]+i[0][1]*i[1][1];i[1][0]-=i[0][0]*a,i[1][1]-=i[0][1]*a;var l=D(i[1][0]*i[1][0]+i[1][1]*i[1][1]);if(0===l)return{origin:{x:r[4],y:r[5]},translate:{x:t,y:n},scale:{x:u,y:0},skew:{x:0,y:0},rotate:0};i[1][0]/=l,i[1][1]/=l,a/=l;var f=0;return i[1][1]<0?(f=z(i[1][1])*V,i[0][1]<0&&(f=360-f)):f=L(i[0][1])*V,o&&(f=-f),a=R(a,D(i[0][0]*i[0][0]+i[0][1]*i[0][1]))*V,{origin:{x:r[4],y:r[5]},translate:{x:t,y:n},scale:{x:u,y:l},skew:{x:a,y:0},rotate:f}}},{key:"toString",value:function(){return null===this.s&&(this.s="matrix("+this.m.map($).join(" ")+")"),this.s}},{key:"determinant",get:function(){var t=this.m;return t[0]*t[3]-t[1]*t[2]}},{key:"isIdentity",get:function(){if(null===this.i){var t=this.m;this.i=1===t[0]&&0===t[1]&&0===t[2]&&1===t[3]&&0===t[4]&&0===t[5]}return this.i}}]),t}(),G=/\.0+$/;function $(t){return Number.isInteger(t)?t:t.toFixed(14).replace(G,"")}Object.freeze({M:2,L:2,Z:0,H:1,V:1,C:6,Q:4,T:2,S:4,A:7});function H(t,n,r){return t+(n-t)*r}function Q(t,n,r){var e=arguments.length>3&&void 0!==arguments[3]&&arguments[3],i={x:H(t.x,n.x,r),y:H(t.y,n.y,r)};return e&&(i.a=function(t,n){return Math.atan2(n.y-t.y,n.x-t.x)}(t,n)),i}function U(t,n,r,e){var i=1-e;return i*i*t+2*i*e*n+e*e*r}function Y(t,n,r,e){return 2*(1-e)*(n-t)+2*e*(r-n)}function Z(t,n,r,e){var i=arguments.length>4&&void 0!==arguments[4]&&arguments[4],u={x:U(t.x,n.x,r.x,e),y:U(t.y,n.y,r.y,e)};return i&&(u.a=function(t,n,r,e){return Math.atan2(Y(t.y,n.y,r.y,e),Y(t.x,n.x,r.x,e))}(t,n,r,e)),u}function J(t,n,r,e,i){var u=i*i;return i*u*(e-t+3*(n-r))+3*u*(t+r-2*n)+3*i*(n-t)+t}function K(t,n,r,e,i){var u=1-i;return 3*(u*u*(n-t)+2*u*i*(r-n)+i*i*(e-r))}function W(t,n,r,e,i){var u=arguments.length>5&&void 0!==arguments[5]&&arguments[5],o={x:J(t.x,n.x,r.x,e.x,i),y:J(t.y,n.y,r.y,e.y,i)};return u&&(o.a=function(t,n,r,e,i){return Math.atan2(K(t.y,n.y,r.y,e.y,i),K(t.x,n.x,r.x,e.x,i))}(t,n,r,e,i)),o}function X(t,n,r){var e,i=arguments.length>3&&void 0!==arguments[3]&&arguments[3];if(nt(n)){if(null!=(e=r).start&&!nt(e))return Z(n,r.start,r,t,i)}else if(nt(r)){if(n.end)return Z(n,n.end,r,t,i)}else{if(n.end)return r.start?W(n,n.end,r.start,r,t,i):Z(n,n.end,r,t,i);if(r.start)return Z(n,r.start,r,t,i)}return Q(n,r,t,i)}function tt(t,n,r){var e=X(t,n,r,!0);return e.a=function(t){return arguments.length>1&&void 0!==arguments[1]&&arguments[1]?t+Math.PI:t}(e.a)/h,e}function nt(t){return!t.type||"corner"===t.type}var rt=new N;var et={f:function(t){return t?t.join(" "):""},i:function(n,r,e){if(0===n)return r;if(1===n)return e;var i=r.length;if(i!==e.length)return y(n,r,e);for(var u,o=new Array(i),a=0;a<i;a++){if((u=t(r[a]))!==t(e[a]))return y(n,r,e);if("number"===u)o[a]=d(n,r[a],e[a]);else{if(r[a]!==e[a])return y(n,r,e);o[a]=r[a]}}return o}},it={f:null,i:x,u:function(t,n){return function(r){var e=n(r);t.setAttribute("x1",I(e[0])),t.setAttribute("y1",I(e[1])),t.setAttribute("x2",I(e[2])),t.setAttribute("y2",I(e[3]))}}},ut={f:I,i:d},ot={f:I,i:function(t,n,r){var e=d(t,n,r);return e<=0?0:e>=1?1:e}},at={f:E,i:function(t,n,r){var e,i,u,o=n.length,a=r.length;if(o!==a)if(0===o)n=k(o=a,0);else if(0===a)a=o,r=k(o,0);else{var l=(u=(e=o)*(i=a)/function(t,n){for(var r;n;)r=n,n=t%n,t=r;return t||1}(e,i))<0?-u:u;n=S(n,Math.floor(l/o)),r=S(r,Math.floor(l/a)),o=a=l}for(var f=[],s=0;s<o;s++)f.push(v(g(t,n[s],r[s]),6));return f}};function lt(t,n,r,e,i,u,o,a){return n=function(t,n,r){for(var e,i,u,o=t.length-1,a={},l=0;l<=o;l++)(e=t[l]).e&&(e.e=n(e.e)),e.v&&"g"===(i=e.v).t&&i.r&&(u=r.getElementById(i.r))&&(a[i.r]=u.querySelectorAll("stop"));return a}(t,e,a),function(e){var i,u=r(e,t,ft);return u?"c"===u.t?B(u.v):"g"===u.t?(n[u.r]&&function(t,n){for(var r=0,e=t.length;r<e;r++)t[r].setAttribute("stop-color",B(n[r]))}(n[u.r],u.v),(i=u.r)?"url(#"+i+")":"none"):"none":"none"}}function ft(t,n,r){if(0===t)return n;if(1===t)return r;if(n&&r){var e=n.t;if(e===r.t)switch(n.t){case"c":return{t:e,v:w(t,n.v,r.v)};case"g":if(n.r===r.r)return{t:e,v:A(t,n.v,r.v),r:n.r}}}return y(t,n,r)}var st={blur:p,brightness:g,contrast:g,"drop-shadow":function(t,n,r){return 0===t?n:1===t?r:{blur:p(t,n.blur,r.blur),offset:m(t,n.offset,r.offset),color:w(t,n.color,r.color)}},grayscale:g,"hue-rotate":d,invert:g,opacity:g,saturate:g,sepia:g};function ct(t,n,r){if(0===t)return n;if(1===t)return r;var e=n.length;if(e!==r.length)return y(t,n,r);for(var i,u=[],o=0;o<e;o++){if(n[o].type!==r[o].type)return n;if(!(i=st[n[o].type]))return y(t,n,r);u.push({type:n.type,value:i(t,n[o].value,r[o].value)})}return u}var vt={blur:function(t){return t?function(n){t.setAttribute("stdDeviation",F(n))}:null},brightness:function(t,n,r){return(t=yt(r,n))?function(n){n=I(n),t.map((function(t){return t.setAttribute("slope",n)}))}:null},contrast:function(t,n,r){return(t=yt(r,n))?function(n){var r=I((1-n)/2);n=I(n),t.map((function(t){t.setAttribute("slope",n),t.setAttribute("intercept",r)}))}:null},"drop-shadow":function(t,n,r){var e=r.getElementById(n+"-blur");if(!e)return null;var i=r.getElementById(n+"-offset");if(!i)return null;var u=r.getElementById(n+"-flood");return u?function(t){e.setAttribute("stdDeviation",F(t.blur)),i.setAttribute("dx",I(t.offset.x)),i.setAttribute("dy",I(t.offset.y)),u.setAttribute("flood-color",B(t.color))}:null},grayscale:function(t){return t?function(n){t.setAttribute("values",E(function(t){return[.2126+.7874*(t=1-t),.7152-.7152*t,.0722-.0722*t,0,0,.2126-.2126*t,.7152+.2848*t,.0722-.0722*t,0,0,.2126-.2126*t,.7152-.7152*t,.0722+.9278*t,0,0,0,0,0,1,0]}(n)))}:null},"hue-rotate":function(t){return t?function(n){return t.setAttribute("values",I(n))}:null},invert:function(t,n,r){return(t=yt(r,n))?function(n){n=I(n)+" "+I(1-n),t.map((function(t){return t.setAttribute("tableValues",n)}))}:null},opacity:function(t,n,r){return(t=r.getElementById(n+"-A"))?function(n){return t.setAttribute("tableValues","0 "+I(n))}:null},saturate:function(t){return t?function(n){return t.setAttribute("values",I(n))}:null},sepia:function(t){return t?function(n){return t.setAttribute("values",E(function(t){return[.393+.607*(t=1-t),.769-.769*t,.189-.189*t,0,0,.349-.349*t,.686+.314*t,.168-.168*t,0,0,.272-.272*t,.534-.534*t,.131+.869*t,0,0,0,0,0,1,0]}(n)))}:null}};var ht=["R","G","B"];function yt(t,n){var r=ht.map((function(r){return t.getElementById(n+"-"+r)||null}));return-1!==r.indexOf(null)?null:r}var dt={fill:lt,"fill-opacity":ot,stroke:lt,"stroke-opacity":ot,"stroke-width":ut,"stroke-dashoffset":{f:I,i:d},"stroke-dasharray":at,opacity:ot,transform:function(n,r,e,i){if(!(n=function(n,r){if(!n||"object"!==t(n))return null;var e=!1;for(var i in n)n.hasOwnProperty(i)&&(n[i]&&n[i].length?(n[i].forEach((function(t){t.e&&(t.e=r(t.e))})),e=!0):delete n[i]);return e?n:null}(n,i)))return null;var u=function(t,i,u){var o=arguments.length>3&&void 0!==arguments[3]?arguments[3]:null;return n[t]?e(i,n[t],u):r&&r[t]?r[t]:o};return r&&r.a&&n.o?function(t){var r=e(t,n.o,tt);return rt.recomposeSelf(r,u("r",t,d,0)+r.a,u("k",t,m),u("s",t,m),u("t",t,m)).toString()}:function(t){return rt.recomposeSelf(u("o",t,X,null),u("r",t,d,0),u("k",t,m),u("s",t,m),u("t",t,m)).toString()}},"#filter":function(t,n,r,e,i,u,o,a){if(!n.items||!t||!t.length)return null;var l=function(t,n){var r=(t=t.map((function(t){return t&&vt[t[0]]?(n.getElementById(t[1]),vt[t[0]](n.getElementById(t[1]),t[1],n)):null}))).length;return function(n){for(var e=0;e<r;e++)t[e]&&t[e](n[e].value)}}(n.items,a);return l?(t=function(t,n){return t.map((function(t){return t.e=n(t.e),t}))}(t,e),function(n){l(r(n,t,ct))}):null},"#line":it,points:{f:E,i:x},d:et,r:ut,"#size":q,"#radius":j,_:function(t,n){if(Array.isArray(t))for(var r=0;r<t.length;r++)this[t[r]]=n;else this[t]=n}},gt=function(){function t(r){n(this,t),this.list=r,this.length=r.length}return e(t,[{key:"setAttribute",value:function(t,n){for(var r=this.list,e=0;e<this.length;e++)r[e].setAttribute(t,n)}},{key:"removeAttribute",value:function(t){for(var n=this.list,r=0;r<this.length;r++)n[r].removeAttribute(t)}},{key:"style",value:function(t,n){for(var r=this.list,e=0;e<this.length;e++)r[e].style[t]=n}}]),t}(),mt=/-./g,pt=function(t,n){return n.toUpperCase()};function bt(t){return"function"==typeof t?t:y}function wt(t){return t?"function"==typeof t?t:Array.isArray(t)?function(t){var n=arguments.length>1&&void 0!==arguments[1]?arguments[1]:o;if(!Array.isArray(t))return n;switch(t.length){case 1:return c(t[0])||n;case 2:return c(t[0],t[1])||n;case 4:return l(t[0],t[1],t[2],t[3])||n}return n}(t,null):function(t,n){var r=arguments.length>2&&void 0!==arguments[2]?arguments[2]:o;switch(t){case"linear":return o;case"steps":return c(n.steps||1,n.jump||0)||r;case"bezier":case"cubic-bezier":return l(n.x1||0,n.y1||0,n.x2||0,n.y2||0)||r}return r}(t.type,t.value,null):null}function At(t,n,r){var e=arguments.length>3&&void 0!==arguments[3]&&arguments[3],i=n.length-1;if(t<=n[0].t)return e?[0,0,n[0].v]:n[0].v;if(t>=n[i].t)return e?[i,1,n[i].v]:n[i].v;var u,o=n[0],a=null;for(u=1;u<=i;u++){if(!(t>n[u].t)){a=n[u];break}o=n[u]}return null==a?e?[i,1,n[i].v]:n[i].v:o.t===a.t?e?[u,1,a.v]:a.v:(t=(t-o.t)/(a.t-o.t),o.e&&(t=o.e(t)),e?[u,t,r(t,o.v,a.v)]:r(t,o.v,a.v))}function xt(t,n){var r=arguments.length>2&&void 0!==arguments[2]?arguments[2]:null;return t&&t.length?"function"!=typeof n?null:("function"!=typeof r&&(r=null),function(e){var i=At(e,t,n);return null!=i&&r&&(i=r(i)),i}):null}function kt(t,n){return t.t-n.t}function St(n,r,e,i,u){var o,a="@"===e[0],l="#"===e[0],f=dt[e],s=y;switch(a?(o=e.substr(1),e=o.replace(mt,pt)):l&&(e=e.substr(1)),t(f)){case"function":if(s=f(i,u,At,wt,e,a,r,n),l)return s;break;case"string":s=xt(i,bt(f));break;case"object":if((s=xt(i,bt(f.i),f.f))&&"function"==typeof f.u)return f.u(r,s,e,a,n)}return s?function(t,n,r){if(arguments.length>3&&void 0!==arguments[3]&&arguments[3])return t instanceof gt?function(e){return t.style(n,r(e))}:function(e){return t.style[n]=r(e)};if(Array.isArray(n)){var e=n.length;return function(i){var u=r(i);if(null==u)for(var o=0;o<e;o++)t[o].removeAttribute(n);else for(var a=0;a<e;a++)t[a].setAttribute(n,u)}}return function(e){var i=r(e);null==i?t.removeAttribute(n):t.setAttribute(n,i)}}(r,e,s,a):null}function _t(n,r,e,i){if(!i||"object"!==t(i))return null;var u=null,o=null;return Array.isArray(i)?o=function(t){if(!t||!t.length)return null;for(var n=0;n<t.length;n++)t[n].e&&(t[n].e=wt(t[n].e));return t.sort(kt)}(i):(o=i.keys,u=i.data||null),o?St(n,r,e,o,u):null}function Mt(t,n,r){if(!r)return null;var e=[];for(var i in r)if(r.hasOwnProperty(i)){var u=_t(t,n,i,r[i]);u&&e.push(u)}return e.length?e:null}function It(t,n){if(!n.duration||n.duration<0)return null;var r=function(t,n){if(!n)return null;var r=[];if(Array.isArray(n))for(var e=n.length,i=0;i<e;i++){var u=n[i];if(2===u.length){var o=null;if("string"==typeof u[0])o=t.getElementById(u[0]);else if(Array.isArray(u[0])){o=[];for(var a=0;a<u[0].length;a++)if("string"==typeof u[0][a]){var l=t.getElementById(u[0][a]);l&&o.push(l)}o=o.length?1===o.length?o[0]:new gt(o):null}if(o){var f=Mt(t,o,u[1]);f&&(r=r.concat(f))}}}else for(var s in n)if(n.hasOwnProperty(s)){var c=t.getElementById(s);if(c){var v=Mt(t,c,n[s]);v&&(r=r.concat(v))}}return r.length?r:null}(t,n.elements);return r?function(t,n){var r=arguments.length>2&&void 0!==arguments[2]?arguments[2]:1/0,e=arguments.length>3&&void 0!==arguments[3]?arguments[3]:1,i=arguments.length>4&&void 0!==arguments[4]&&arguments[4],u=arguments.length>5&&void 0!==arguments[5]?arguments[5]:1,o=t.length,a=e>0?n:0;i&&r%2==0&&(a=n-a);var l=null;return function(f,s){var c=f%n,v=1+(f-c)/n;s*=e,i&&v%2==0&&(s=-s);var h=!1;if(v>r)c=a,h=!0,-1===u&&(c=e>0?0:n);else if(s<0&&(c=n-c),c===l)return!1;l=c;for(var y=0;y<o;y++)t[y](c);return h}}(r,n.duration,n.iterations||1/0,n.direction||1,!!n.alternate,n.fill||1):null}var Et=function(){function t(r){var e=arguments.length>1&&void 0!==arguments[1]?arguments[1]:{};n(this,t),this._id=0,this._running=!1,this._animations=r,this.direction=e.direction||1,this.speed=e.speed||1,this.fps=e.fps||100,this.offset=e.offset||0}return e(t,[{key:"_start",value:function(){var t=this,n=arguments.length>0&&void 0!==arguments[0]?arguments[0]:0,r=-1/0,e=null,i={},u=function u(o){t._running=!0,null==e&&(e=o);var a=Math.round((o-e+n)*t.speed),l=t.fps?1e3/t.fps:0;if(a>r+l){t.offset=a,r=a;for(var f=t._animations,s=f.length,c=0,v=0;v<s;v++)i[v]?c++:(i[v]=f[v](a,t.direction),i[v]&&c++);if(c===s)return void t._stop()}t._id=window.requestAnimationFrame(u)};this._id=window.requestAnimationFrame(u)}},{key:"_stop",value:function(){this._id&&window.cancelAnimationFrame(this._id),this._running=!1}},{key:"play",value:function(){this._running||this._start(this.offset)}},{key:"stop",value:function(){this._stop(),this.offset=0;var t=this.direction,n=this._animations;requestAnimationFrame((function(){for(var r=0;r<n.length;r++)n[r](0,t)}))}},{key:"restart",value:function(){this._stop(),this.offset=0,this._start()}},{key:"pause",value:function(){this._stop()}},{key:"reverse",value:function(){this.direction=-this.direction}}],[{key:"build",value:function(n){if(!(n=function(t){if(!t||!t.root||!Array.isArray(t.animations))return null;var n=window.document.getElementById(t.root);if(!n)return null;var r=t.animations.map((function(t){return It(n,t)})).filter((function(t){return!!t}));return r.length?{element:n,animations:r,options:t.options||void 0}:null}(n)))return null;var r=n.element,e=n.options||{},i=new t(n.animations,n.options);return function(t,n,r){var e=arguments.length>3&&void 0!==arguments[3]?arguments[3]:null;if("click"===r){return void n.addEventListener("click",(function r(){n.removeEventListener("click",r),t.play()}))}if("hover"===r)return n.addEventListener("mouseenter",(function(){return t.play()})),void n.addEventListener("mouseleave","freeze"===e?function(){return t.pause()}:function(){return t.stop()});t.play()}(i,r,e.start,e.hover),i}}]),t}();return function(){for(var t=0,n=["ms","moz","webkit","o"],r=0;r<n.length&&!window.requestAnimationFrame;++r)window.requestAnimationFrame=window[n[r]+"RequestAnimationFrame"],window.cancelAnimationFrame=window[n[r]+"CancelAnimationFrame"]||window[n[r]+"CancelRequestAnimationFrame"];window.requestAnimationFrame||(window.requestAnimationFrame=function(n){var r=Date.now(),e=Math.max(0,16-(r-t)),i=window.setTimeout((function(){n(r+e)}),e);return t=r+e,i},window.cancelAnimationFrame=window.clearTimeout)}(),Et}));
__SVGATOR_PLAYER__.build({"root":"exos8vulc3cc1","animations":[{"duration":2200,"direction":1,"iterations":1,"fill":1,"alternate":false,"elements":{"exos8vulc3cc2":{"transform":{"keys":{"o":[{"t":1500,"v":{"x":699.0375018299997,"y":151.81910972499995,"type":"corner"}},{"t":2200,"v":{"x":349.0287539649996,"y":75.77473773999998,"type":"corner"}}],"s":[{"t":1500,"v":{"x":0.3,"y":0.3}},{"t":2200,"v":{"x":0.65,"y":0.65}}]}},"opacity":[{"t":1500,"v":0,"e":[0.645,0.045,0.355,1]},{"t":2200,"v":0.74}]},"exos8vulc3cc5":{"opacity":[{"t":0,"v":0},{"t":700,"v":1}]},"exos8vulc3cc13":{"opacity":[{"t":800,"v":0},{"t":1500,"v":1}]}}}],"options":{"start":"load","hover":"freeze"}})]]></script>
</svg>