<svg id="esfl33pbppjn1" xmlns="http://www.w3.org/2000/svg" xmlns:xlink="http://www.w3.org/1999/xlink" viewBox="0 0 3000 500" shape-rendering="geometricPrecision" text-rendering="geometricPrecision"><g id="esfl33pbppjn2" transform="matrix(1.39007223315598 0 0 1.25125089380194 -559.21282441999983 -14.21402799500006)"><g id="esfl33pbppjn3"><path id="esfl33pbppjn4" d="M1541.760000,77.530000L1486.760000,36.530000C1473.411228,26.576423,1455.108772,26.576423,1441.760000,36.530000L1253.700000,176.740000C1244.190000,183.830000,1249.200000,198.930000,1261.050000,198.930000L1286.790000,198.930000C1291.376918,198.930041,1295.841425,197.450055,1299.520000,194.710000L1452,81.370000C1459.316700,75.931350,1469.333300,75.931350,1476.650000,81.370000L1629,194.710000C1632.679242,197.448775,1637.143312,198.928616,1641.730000,198.930000L1667.470000,198.930000C1679.320000,198.930000,1684.330000,183.830000,1674.830000,176.740000L1589.470000,113.110000C1587.862261,111.917066,1586.916004,110.031974,1586.920000,108.030000L1586.920000,55.450000C1586.920000,52.390342,1584.439658,49.910000,1581.380000,49.910000L1549.380000,49.910000C1547.911619,49.909998,1546.503524,50.493993,1545.466160,51.533233C1544.428796,52.572473,1543.847345,53.981621,1543.850000,55.450000L1543.850000,76.450000C1543.877346,76.956801,1543.604977,77.432540,1543.154082,77.665538C1542.703187,77.898536,1542.157569,77.845489,1541.760000,77.530000Z" transform="matrix(1 0 0 1 2 -10.12000000000000)" fill="rgb(65,77,80)" stroke="none" stroke-width="1"/><path id="esfl33pbppjn5" d="M1612.390000,191.220000L1475.550000,89.470000C1468.854563,84.489753,1459.685437,84.489753,1452.990000,89.470000L1316.100000,191.260000C1311.169298,194.920603,1308.249866,200.689076,1308.220000,206.830000L1307.070000,421.080000L1475.770000,421.080000L1475.270000,281.490000C1475.571589,278.075741,1477.167195,274.905995,1479.730000,272.630000L1479.730000,272.630000C1481.835844,270.835914,1484.513543,269.853500,1487.280000,269.860000C1498.410000,269.860000,1539.280000,269.860000,1552.650000,269.860000C1553.661728,269.842823,1554.671060,269.963943,1555.650000,270.220000C1561.080000,271.710000,1564.770000,276.560000,1564.290000,281.830000L1564.290000,421.080000L1613.880000,420.600000C1617.407572,420.551353,1620.252343,417.697706,1620.290000,414.170000L1620.290000,206.900000C1620.285364,200.717913,1617.355493,194.902676,1612.390000,191.220000ZM1386.270000,333.300000C1386.270000,338.700000,1381.640000,343.080000,1375.920000,343.080000L1350.620000,343.080000C1344.910000,343.080000,1340.270000,338.700000,1340.270000,333.300000L1340.270000,310.860000C1340.270000,305.460000,1344.900000,301.080000,1350.620000,301.080000L1375.930000,301.080000C1381.650000,301.080000,1386.280000,305.460000,1386.280000,310.860000ZM1386.270000,281.300000C1386.270000,286.700000,1381.640000,291.080000,1375.920000,291.080000L1350.620000,291.080000C1344.910000,291.080000,1340.270000,286.700000,1340.270000,281.300000L1340.270000,258.870000C1340.427969,253.309982,1345.059795,248.928767,1350.620000,249.080000L1375.930000,249.080000C1381.650000,249.080000,1386.280000,253.460000,1386.280000,258.860000ZM1443.270000,333.300000C1443.270000,338.700000,1438.640000,343.080000,1432.920000,343.080000L1407.620000,343.080000C1401.910000,343.080000,1397.270000,338.700000,1397.270000,333.300000L1397.270000,310.860000C1397.270000,305.460000,1401.910000,301.080000,1407.620000,301.080000L1432.920000,301.080000C1438.640000,301.080000,1443.270000,305.460000,1443.270000,310.860000ZM1443.270000,281.300000C1443.270000,286.700000,1438.640000,291.080000,1432.920000,291.080000L1407.620000,291.080000C1401.910000,291.080000,1397.270000,286.700000,1397.270000,281.300000L1397.270000,258.860000C1397.270000,253.460000,1401.910000,249.080000,1407.620000,249.080000L1432.920000,249.080000C1438.640000,249.080000,1443.270000,253.460000,1443.270000,258.860000Z" transform="matrix(1 0 0 1 2 -10.12000000000000)" fill="rgb(65,77,80)" stroke="none" stroke-width="1"/></g><g id="esfl33pbppjn6"><g id="esfl33pbppjn7" transform="matrix(1 0 0 1 -88.32035156500001 -234.10600319999998)" opacity="0"><path id="esfl33pbppjn8" d="M1716.160000,251.280000C1716.770000,250.500000,1716.980000,247.770000,1717.590000,246.580000C1719.310000,243.760000,1720.920000,246.040000,1721.900000,248.750000C1722.117381,249.291548,1722.440314,249.784445,1722.850000,250.200000C1723.760000,251.330000,1726.240000,247.420000,1726.730000,249.800000C1726.820000,250.380000,1727.080000,251.160000,1727.230000,251.800000C1727.770000,254.070000,1728.550000,255.510000,1728.610000,257.560000C1728.660000,258.290000,1728.610000,259.610000,1728.610000,260.480000C1728.740871,261.963932,1728.117145,263.414282,1726.950000,264.340000C1726.026410,265.097800,1725.020002,265.748610,1723.950000,266.280000C1720.110000,267.980000,1720.890000,265.020000,1717.360000,264.670000C1716.566583,264.570653,1715.810451,264.275074,1715.160000,263.810000C1712.950000,262.250000,1706.540000,261.350000,1709.280000,258.350000C1710.350000,257.500000,1713.650000,256.600000,1713.820000,255.350000C1714.360000,253.340000,1715,253,1716.160000,251.280000Z" transform="matrix(1 0 0 1 2 -10.12000000000000)" fill="rgb(81,96,99)" stroke="none" stroke-width="1"/><path id="esfl33pbppjn9" d="M1716.160000,251.280000C1716.770000,250.500000,1716.980000,247.770000,1717.590000,246.580000C1719.310000,243.760000,1720.920000,246.040000,1721.900000,248.750000C1722.117381,249.291548,1722.440314,249.784445,1722.850000,250.200000C1723.760000,251.330000,1726.240000,247.420000,1726.730000,249.800000C1726.820000,250.380000,1727.080000,251.160000,1727.230000,251.800000C1727.770000,254.070000,1728.550000,255.510000,1728.610000,257.560000C1728.660000,258.290000,1728.610000,259.610000,1728.610000,260.480000C1728.740871,261.963932,1728.117145,263.414282,1726.950000,264.340000C1726.026410,265.097800,1725.020002,265.748610,1723.950000,266.280000C1720.110000,267.980000,1720.890000,265.020000,1717.360000,264.670000C1716.566583,264.570653,1715.810451,264.275074,1715.160000,263.810000C1712.950000,262.250000,1706.540000,261.350000,1709.280000,258.350000C1710.350000,257.500000,1713.650000,256.600000,1713.820000,255.350000C1714.360000,253.340000,1715,253,1716.160000,251.280000Z" transform="matrix(1 0 0 1 2 -10.12000000000000)" fill="none" stroke="rgb(90,98,99)" stroke-width="3" stroke-linecap="round" stroke-linejoin="bevel" stroke-dasharray="1,5,1,5,1,5"/></g><g id="esfl33pbppjn10" transform="matrix(1 0 0 1 102.52338000000009 -209.93629455999977)" opacity="0"><path id="esfl33pbppjn11" d="M1652.070000,235.760000C1651.930000,234.610000,1652.530000,233.250000,1652.800000,231.940000C1653.310000,229.810000,1654.050000,228.420000,1654.630000,226.210000C1654.960000,225.140000,1655.310000,223.380000,1655.630000,222.320000C1656.370000,219.980000,1658.040000,219.570000,1659.560000,220.560000C1660.599896,221.378555,1661.510167,222.349511,1662.260000,223.440000C1662.820000,224.180000,1663.530000,224.630000,1663.560000,225.500000C1663.560000,226.030000,1663.610000,225.780000,1663.890000,226.020000C1664.292535,226.643664,1664.529967,227.359400,1664.580000,228.100000C1664.798256,229.127442,1665.234779,230.095978,1665.860000,230.940000C1666.970000,232.300000,1668.420000,232.780000,1669.650000,234.810000C1670.180000,235.740000,1671.220000,237.640000,1670.650000,239.110000C1669.830000,242.400000,1665.780000,246.210000,1660.850000,241.460000C1658.470000,238.560000,1657.060000,240.910000,1653.970000,240.820000C1650.880000,240.730000,1652.300000,237.320000,1652.070000,235.760000Z" transform="matrix(1 0 0 1 2 -10.12000000000000)" fill="rgb(81,96,99)" stroke="none" stroke-width="1"/><path id="esfl33pbppjn12" d="M1652.070000,235.760000C1651.930000,234.610000,1652.530000,233.250000,1652.800000,231.940000C1653.310000,229.810000,1654.050000,228.420000,1654.630000,226.210000C1654.960000,225.140000,1655.310000,223.380000,1655.630000,222.320000C1656.370000,219.980000,1658.040000,219.570000,1659.560000,220.560000C1660.599896,221.378555,1661.510167,222.349511,1662.260000,223.440000C1662.820000,224.180000,1663.530000,224.630000,1663.560000,225.500000C1663.560000,226.030000,1663.610000,225.780000,1663.890000,226.020000C1664.292535,226.643664,1664.529967,227.359400,1664.580000,228.100000C1664.798256,229.127442,1665.234779,230.095978,1665.860000,230.940000C1666.970000,232.300000,1668.420000,232.780000,1669.650000,234.810000C1670.180000,235.740000,1671.220000,237.640000,1670.650000,239.110000C1669.830000,242.400000,1665.780000,246.210000,1660.850000,241.460000C1658.470000,238.560000,1657.060000,240.910000,1653.970000,240.820000C1650.880000,240.730000,1652.300000,237.320000,1652.070000,235.760000Z" transform="matrix(1 0 0 1 2 -10.12000000000000)" fill="none" stroke="rgb(90,98,99)" stroke-width="3" stroke-linecap="round" stroke-linejoin="bevel" stroke-dasharray="1,5,1,5,1,5"/></g><g id="esfl33pbppjn13" transform="matrix(1 0 0 1 -5.07574384999180 -132.66665074000014)" opacity="0"><path id="esfl33pbppjn14" d="M1650.330000,166C1650.010000,164.740000,1650.330000,163.340000,1650.020000,161.540000C1649.430000,157.140000,1654.810000,157.910000,1654.530000,150.860000C1654.290000,149.020000,1654.530000,148.860000,1654.350000,148.110000C1653.350000,145.110000,1654.260000,146.480000,1655.090000,145.440000C1655.690000,144.930000,1659.730000,150.140000,1659.810000,150.390000C1662.460000,150.250000,1661.810000,145.750000,1663.880000,149.440000C1664.410000,150.340000,1666.550000,150.320000,1666.450000,150.910000C1666.240000,152.260000,1665.780000,151.910000,1665.320000,152.520000C1665.057382,152.910530,1664.914852,153.369406,1664.910000,153.840000C1664.910000,156.350000,1663.790000,153.280000,1663.650000,156.030000C1663.650000,156.440000,1663.650000,157.500000,1663.650000,158.030000C1663.830000,162.660000,1663.400000,166.600000,1659.100000,169.140000C1658.270000,169.720000,1655.550000,171.140000,1655.850000,169.870000C1657.780000,163.210000,1651.930000,169.530000,1650.330000,166Z" transform="matrix(1 0 0 1 2 -10.12000000000000)" fill="none" stroke="rgb(90,98,99)" stroke-width="3" stroke-linecap="round" stroke-linejoin="bevel" stroke-dasharray="1,5,1,5,1,5"/><path id="esfl33pbppjn15" d="M1650.330000,166C1650.010000,164.740000,1650.330000,163.340000,1650.020000,161.540000C1649.430000,157.140000,1654.810000,157.910000,1654.530000,150.860000C1654.290000,149.020000,1654.530000,148.860000,1654.350000,148.110000C1653.350000,145.110000,1654.260000,146.480000,1655.090000,145.440000C1655.690000,144.930000,1659.730000,150.140000,1659.810000,150.390000C1662.460000,150.250000,1661.810000,145.750000,1663.880000,149.440000C1664.410000,150.340000,1666.550000,150.320000,1666.450000,150.910000C1666.240000,152.260000,1665.780000,151.910000,1665.320000,152.520000C1665.057382,152.910530,1664.914852,153.369406,1664.910000,153.840000C1664.910000,156.350000,1663.790000,153.280000,1663.650000,156.030000C1663.650000,156.440000,1663.650000,157.500000,1663.650000,158.030000C1663.830000,162.660000,1663.400000,166.600000,1659.100000,169.140000C1658.270000,169.720000,1655.550000,171.140000,1655.850000,169.870000C1657.780000,163.210000,1651.930000,169.530000,1650.330000,166Z" transform="matrix(1 0 0 1 2 -10.12000000000000)" fill="rgb(81,96,99)" stroke="none" stroke-width="1"/></g><g id="esfl33pbppjn16" transform="matrix(1 0 0 1 -5.59000488000015 -55.69097827000000)" opacity="0"><path id="esfl33pbppjn17" d="M1623.090000,84.760000C1623.757861,84.721230,1624.413399,84.951749,1624.910000,85.400000C1625.840000,86.020000,1626.680000,85.970000,1627.530000,86.870000C1627.990000,87.350000,1629.030000,87.300000,1629.530000,87.490000C1630.590000,87.860000,1631.060000,88.880000,1631.660000,90.580000C1631.910000,91.190000,1632.160000,91.760000,1632.500000,92.420000C1633.440000,94.220000,1634.560000,95.730000,1634.610000,97.890000C1634.340000,98.890000,1631.670000,93.710000,1631.860000,94.820000C1631.770000,96.340000,1631.320000,97.540000,1630.100000,98.160000C1629.068805,98.724217,1627.955149,99.122433,1626.800000,99.340000C1625.960000,99.890000,1618.220000,106.050000,1617.150000,102.590000C1617.196726,101.185731,1617.442510,99.795200,1617.880000,98.460000C1619.090000,95.110000,1621.350000,93.090000,1621.710000,90.260000C1621.873032,89.013744,1621.926570,87.755601,1621.870000,86.500000C1621.880000,85.110000,1622.300000,84.940000,1623.090000,84.760000Z" transform="matrix(1 0 0 1 2.00000000000023 -10.12000000000000)" fill="rgb(81,96,99)" stroke="none" stroke-width="1"/><path id="esfl33pbppjn18" d="M1623.090000,84.760000C1623.757861,84.721230,1624.413399,84.951749,1624.910000,85.400000C1625.840000,86.020000,1626.680000,85.970000,1627.530000,86.870000C1627.990000,87.350000,1629.030000,87.300000,1629.530000,87.490000C1630.590000,87.860000,1631.060000,88.880000,1631.660000,90.580000C1631.910000,91.190000,1632.160000,91.760000,1632.500000,92.420000C1633.440000,94.220000,1634.560000,95.730000,1634.610000,97.890000C1634.340000,98.890000,1631.670000,93.710000,1631.860000,94.820000C1631.770000,96.340000,1631.320000,97.540000,1630.100000,98.160000C1629.068805,98.724217,1627.955149,99.122433,1626.800000,99.340000C1625.960000,99.890000,1618.220000,106.050000,1617.150000,102.590000C1617.196726,101.185731,1617.442510,99.795200,1617.880000,98.460000C1619.090000,95.110000,1621.350000,93.090000,1621.710000,90.260000C1621.873032,89.013744,1621.926570,87.755601,1621.870000,86.500000C1621.880000,85.110000,1622.300000,84.940000,1623.090000,84.760000Z" transform="matrix(1 0 0 1 2 -10.12000000000000)" fill="none" stroke="rgb(90,98,99)" stroke-width="3" stroke-linecap="round" stroke-linejoin="bevel" stroke-dasharray="1,5,1,5,1,5"/></g><g id="esfl33pbppjn19" transform="matrix(1 0 0 1 -9.98015199999986 -2.32614517000000)" opacity="0"><path id="esfl33pbppjn20" d="M1539.120000,14.350000C1539.318483,14.039034,1539.546181,13.747714,1539.800000,13.480000C1540.391715,12.821954,1541.235042,12.446145,1542.120000,12.446145C1543.004958,12.446145,1543.848285,12.821954,1544.440000,13.480000C1544.674830,13.713662,1544.892087,13.964343,1545.090000,14.230000C1546.560000,16.070000,1546.470000,18.350000,1548.930000,20.760000C1549.160000,20.990000,1549.420000,21.230000,1549.620000,21.410000C1551.790000,23.220000,1552.670000,24.510000,1550.780000,26.030000C1550.210342,26.364168,1549.598135,26.619815,1548.960000,26.790000C1546.854577,27.550204,1544.532813,27.438616,1542.510000,26.480000C1541.976165,26.334695,1541.405191,26.441522,1540.960000,26.770000C1538.610000,28.770000,1534.140000,29.350000,1530.250000,28.140000C1530.053008,28.063030,1529.867852,27.958669,1529.700000,27.830000C1526.500000,25.530000,1532.400000,23.740000,1534.700000,21.830000C1535.460730,21.252571,1536.116892,20.549058,1536.640000,19.750000C1538,17.720000,1538.110000,15.860000,1539.120000,14.350000Z" transform="matrix(1 0 0 1 2 -10.12000000000000)" fill="rgb(81,96,99)" stroke="none" stroke-width="1"/><path id="esfl33pbppjn21" d="M1539.120000,14.350000C1539.318483,14.039034,1539.546181,13.747714,1539.800000,13.480000C1540.391715,12.821954,1541.235042,12.446145,1542.120000,12.446145C1543.004958,12.446145,1543.848285,12.821954,1544.440000,13.480000C1544.674830,13.713662,1544.892087,13.964343,1545.090000,14.230000C1546.560000,16.070000,1546.470000,18.350000,1548.930000,20.760000C1549.160000,20.990000,1549.420000,21.230000,1549.620000,21.410000C1551.790000,23.220000,1552.670000,24.510000,1550.780000,26.030000C1550.210342,26.364168,1549.598135,26.619815,1548.960000,26.790000C1546.854577,27.550204,1544.532813,27.438616,1542.510000,26.480000C1541.976165,26.334695,1541.405191,26.441522,1540.960000,26.770000C1538.610000,28.770000,1534.140000,29.350000,1530.250000,28.140000C1530.053008,28.063030,1529.867852,27.958669,1529.700000,27.830000C1526.500000,25.530000,1532.400000,23.740000,1534.700000,21.830000C1535.460730,21.252571,1536.116892,20.549058,1536.640000,19.750000C1538,17.720000,1538.110000,15.860000,1539.120000,14.350000Z" transform="matrix(1 0 0 1 2 -10.12000000000000)" fill="none" stroke="rgb(90,98,99)" stroke-width="3" stroke-linecap="round" stroke-linejoin="bevel" stroke-dasharray="1,5,1,5,1,5"/></g><g id="esfl33pbppjn22" transform="matrix(1 0 0 1 -0.88385009000035 -79.01051752000001)" opacity="0"><path id="esfl33pbppjn23" d="M1346.140000,94.420000C1347.050000,96.420000,1347.500000,96.040000,1348.600000,94.700000C1349.700000,93.360000,1350.410000,93.250000,1350.660000,94.420000C1350.870000,95.350000,1350.770000,97.120000,1351.040000,98.340000C1351.340000,100,1351.930000,101.240000,1352.120000,103.010000C1352.310000,104.780000,1354.560000,106.950000,1356.650000,107.700000C1358.740000,108.450000,1360.360000,107.940000,1361.880000,109.400000C1363.400000,111.140000,1353.880000,112.610000,1351.880000,111.690000C1349.880000,111.250000,1347.390000,109.930000,1346.140000,110.990000C1344.890000,112.050000,1343.340000,115.370000,1341.850000,116.460000C1339.650000,118.090000,1337.980000,115.840000,1337.620000,113.700000C1337.080000,112.160000,1331.450000,110.250000,1332.990000,107.940000C1335.430000,104.470000,1336.100000,97.760000,1334.450000,95.570000C1333.810000,92.690000,1341.330000,90.690000,1343.220000,91.740000C1344.604515,92.043115,1345.719542,93.066495,1346.140000,94.420000Z" transform="matrix(1 0 0 1 2 -10.12000000000000)" fill="rgb(81,96,99)" stroke="none" stroke-width="1"/><path id="esfl33pbppjn24" d="M1346.140000,94.420000C1347.050000,96.420000,1347.500000,96.040000,1348.600000,94.700000C1349.700000,93.360000,1350.410000,93.250000,1350.660000,94.420000C1350.870000,95.350000,1350.770000,97.120000,1351.040000,98.340000C1351.340000,100,1351.930000,101.240000,1352.120000,103.010000C1352.310000,104.780000,1354.560000,106.950000,1356.650000,107.700000C1358.740000,108.450000,1360.360000,107.940000,1361.880000,109.400000C1363.400000,111.140000,1353.880000,112.610000,1351.880000,111.690000C1349.880000,111.250000,1347.390000,109.930000,1346.140000,110.990000C1344.890000,112.050000,1343.340000,115.370000,1341.850000,116.460000C1339.650000,118.090000,1337.980000,115.840000,1337.620000,113.700000C1337.080000,112.160000,1331.450000,110.250000,1332.990000,107.940000C1335.430000,104.470000,1336.100000,97.760000,1334.450000,95.570000C1333.810000,92.690000,1341.330000,90.690000,1343.220000,91.740000C1344.604515,92.043115,1345.719542,93.066495,1346.140000,94.420000Z" transform="matrix(1 0 0 1 2 -10.12000000000000)" fill="none" stroke="rgb(90,98,99)" stroke-width="3" stroke-linecap="round" stroke-linejoin="bevel" stroke-dasharray="1,5,1,5,1,5"/></g><g id="esfl33pbppjn25" transform="matrix(1 0 0 1 -0.58664202000000 -102.89121558499997)" opacity="0"><path id="esfl33pbppjn26" d="M1240.650000,114C1241.010000,114.130000,1241.450000,114.730000,1241.840000,114.360000C1242.740000,113.470000,1244.020000,112.500000,1245.290000,112.900000C1245.690000,113.010000,1246.350000,112.990000,1246.670000,113.460000C1247.670000,115.200000,1246.130000,117.460000,1247.010000,120.080000C1247.363992,121.329851,1247.846570,122.539648,1248.450000,123.690000C1251.880000,128.580000,1244.200000,132.690000,1238.960000,131.430000C1237.160000,131.150000,1236.960000,130.230000,1237.090000,129.330000C1237.250000,127.590000,1236.770000,128.500000,1235.640000,127.900000C1234.507212,127.362421,1233.470144,126.642892,1232.570000,125.770000C1231.490000,123.960000,1233.960000,122.340000,1235.120000,120.370000C1235.418640,119.884756,1235.663423,119.368365,1235.850000,118.830000C1236.440000,116.940000,1236.720000,116.070000,1237.720000,115.710000C1238.150899,115.491084,1238.501084,115.140899,1238.720000,114.710000C1238.867245,114.347272,1239.160621,114.063451,1239.528025,113.928292C1239.895428,113.793133,1240.302792,113.819169,1240.650000,114Z" transform="matrix(1 0 0 1 2 -10.12000000000000)" fill="none" stroke="rgb(90,98,99)" stroke-width="3" stroke-linecap="round" stroke-linejoin="bevel" stroke-dasharray="1,5,1,5,1,5"/><path id="esfl33pbppjn27" d="M1240.650000,114C1241.010000,114.130000,1241.450000,114.730000,1241.840000,114.360000C1242.740000,113.470000,1244.020000,112.500000,1245.290000,112.900000C1245.690000,113.010000,1246.350000,112.990000,1246.670000,113.460000C1247.670000,115.200000,1246.130000,117.460000,1247.010000,120.080000C1247.363992,121.329851,1247.846570,122.539648,1248.450000,123.690000C1251.880000,128.580000,1244.200000,132.690000,1238.960000,131.430000C1237.160000,131.150000,1236.960000,130.230000,1237.090000,129.330000C1237.250000,127.590000,1236.770000,128.500000,1235.640000,127.900000C1234.507212,127.362421,1233.470144,126.642892,1232.570000,125.770000C1231.490000,123.960000,1233.960000,122.340000,1235.120000,120.370000C1235.418640,119.884756,1235.663423,119.368365,1235.850000,118.830000C1236.440000,116.940000,1236.720000,116.070000,1237.720000,115.710000C1238.150899,115.491084,1238.501084,115.140899,1238.720000,114.710000C1238.867245,114.347272,1239.160621,114.063451,1239.528025,113.928292C1239.895428,113.793133,1240.302792,113.819169,1240.650000,114Z" transform="matrix(1 0 0 1 2 -10.12000000000000)" fill="rgb(81,96,99)" stroke="none" stroke-width="1"/></g><g id="esfl33pbppjn28" transform="matrix(1 0 0 1 -4.53643200000010 -168.77381896999992)" opacity="0"><path id="esfl33pbppjn29" d="M1193.640000,180.460000C1193.879485,180.262743,1194.129881,180.079119,1194.390000,179.910000C1196.529229,178.488389,1199.331038,178.564438,1201.390000,180.100000C1201.572183,180.228228,1201.742830,180.372107,1201.900000,180.530000C1203.460000,182.380000,1202.310000,183.290000,1202.590000,186.320000C1202.590000,186.420000,1202.590000,186.520000,1202.590000,186.600000C1202.830000,189.020000,1203.310000,191.500000,1201.990000,193.920000C1201.751294,194.344329,1201.484011,194.751936,1201.190000,195.140000C1200.342847,196.502738,1198.958825,197.443583,1197.380000,197.730000C1197.095833,197.833989,1196.800503,197.904465,1196.500000,197.940000C1194.130000,197.760000,1192.070000,199.190000,1190.800000,196.340000L1190.800000,196.340000C1189.440000,193.430000,1189.990000,188.980000,1190.440000,186.570000C1190.440000,186.240000,1190.530000,185.740000,1190.590000,185.330000C1190.916653,183.364928,1192.014656,181.611724,1193.640000,180.460000Z" transform="matrix(1 0 0 1 2 -10.12000000000000)" fill="rgb(81,96,99)" stroke="none" stroke-width="1"/><path id="esfl33pbppjn30" d="M1193.640000,180.460000C1193.879485,180.262743,1194.129881,180.079119,1194.390000,179.910000C1196.529229,178.488389,1199.331038,178.564438,1201.390000,180.100000C1201.572183,180.228228,1201.742830,180.372107,1201.900000,180.530000C1203.460000,182.380000,1202.310000,183.290000,1202.590000,186.320000C1202.590000,186.420000,1202.590000,186.520000,1202.590000,186.600000C1202.830000,189.020000,1203.310000,191.500000,1201.990000,193.920000C1201.751294,194.344329,1201.484011,194.751936,1201.190000,195.140000C1200.342847,196.502738,1198.958825,197.443583,1197.380000,197.730000C1197.095833,197.833989,1196.800503,197.904465,1196.500000,197.940000C1194.130000,197.760000,1192.070000,199.190000,1190.800000,196.340000L1190.800000,196.340000C1189.440000,193.430000,1189.990000,188.980000,1190.440000,186.570000C1190.440000,186.240000,1190.530000,185.740000,1190.590000,185.330000C1190.916653,183.364928,1192.014656,181.611724,1193.640000,180.460000Z" transform="matrix(1 0 0 1 2 -10.12000000000000)" fill="none" stroke="rgb(90,98,99)" stroke-width="3" stroke-linecap="round" stroke-linejoin="bevel" stroke-dasharray="1,5,1,5,1,5"/></g><g id="esfl33pbppjn31" transform="matrix(1 0 0 1 13.43313338499638 -245.08972153500000)" opacity="0"><path id="esfl33pbppjn32" d="M1242,259.850000C1242.470000,258.990000,1243,258.010000,1243.490000,257.020000C1243.980000,256.030000,1244.650000,255.720000,1245.490000,256.070000C1246.330000,256.420000,1247.490000,256.690000,1248.240000,256.950000C1249.350000,257.290000,1249.870000,258.200000,1250.110000,259.950000C1250.281984,261.364453,1250.748695,262.727115,1251.480000,263.950000C1252.431052,265.182454,1253.177285,266.560114,1253.690000,268.030000C1254.130000,269.590000,1254.890000,272.310000,1254.490000,274.150000C1254.090000,275.990000,1252.040000,275.660000,1250.060000,274.600000C1248.080000,273.540000,1246.150000,272.600000,1244.680000,273.930000C1242.440000,275.880000,1240.550000,275.550000,1238.530000,274.630000C1237.176692,273.907589,1236.116281,272.737602,1235.530000,271.320000C1234.750000,269.730000,1235.910000,268.560000,1237.710000,267.080000C1239.150276,265.972073,1240.234847,264.466884,1240.830000,262.750000C1241.085420,261.734336,1241.479097,260.758555,1242,259.850000Z" transform="matrix(1 0 0 1 2 -10.12000000000000)" fill="none" stroke="rgb(90,98,99)" stroke-width="3" stroke-linecap="round" stroke-linejoin="bevel" stroke-dasharray="1,5,1,5,1,5"/><path id="esfl33pbppjn33" d="M1242,259.850000C1242.470000,258.990000,1243,258.010000,1243.490000,257.020000C1243.980000,256.030000,1244.650000,255.720000,1245.490000,256.070000C1246.330000,256.420000,1247.490000,256.690000,1248.240000,256.950000C1249.350000,257.290000,1249.870000,258.200000,1250.110000,259.950000C1250.281984,261.364453,1250.748695,262.727115,1251.480000,263.950000C1252.431052,265.182454,1253.177285,266.560114,1253.690000,268.030000C1254.130000,269.590000,1254.890000,272.310000,1254.490000,274.150000C1254.090000,275.990000,1252.040000,275.660000,1250.060000,274.600000C1248.080000,273.540000,1246.150000,272.600000,1244.680000,273.930000C1242.440000,275.880000,1240.550000,275.550000,1238.530000,274.630000C1237.176692,273.907589,1236.116281,272.737602,1235.530000,271.320000C1234.750000,269.730000,1235.910000,268.560000,1237.710000,267.080000C1239.150276,265.972073,1240.234847,264.466884,1240.830000,262.750000C1241.085420,261.734336,1241.479097,260.758555,1242,259.850000Z" transform="matrix(1 0 0 1 2 -10.12000000000000)" fill="rgb(81,96,99)" stroke="none" stroke-width="1"/></g></g></g><g id="esfl33pbppjn34" transform="matrix(1.27550688784961 0 0 1.19686225810781 -64.29186960999999 0)"><g id="esfl33pbppjn35"><path id="esfl33pbppjn36" d="M449.770000,392.810000L449.770000,140.310000L266.120000,55.680000L82.580000,140.310000L82.580000,392.810000ZM309.660000,374L309.660000,217.350000L394.170000,217.350000L394.170000,374ZM207.860000,216L263.650000,216L263.650000,269.900000L207.860000,269.900000ZM207.860000,282.690000L263.650000,282.690000L263.650000,336.600000L207.860000,336.600000ZM138.130000,216L194,216L194,269.900000L138.200000,269.900000ZM138.130000,282.690000L194,282.690000L194,336.600000L138.200000,336.600000Z" transform="matrix(1 0 0 1 2 -10.12000000000000)" fill="rgb(65,77,80)" stroke="none" stroke-width="1"/><polygon id="esfl33pbppjn37" points="268.160000,32.110000 481.380000,132.810000 479.020000,100.320000 424.190000,73.680000 424.190000,22.390000 368.370000,22.390000 368.370000,47.320000 268.160000,0 54.850000,101.550000 54.950000,132.810000 268.160000,32.110000" fill="rgb(65,77,80)" stroke="none" stroke-width="1"/></g><path id="esfl33pbppjn38" d="M448.139339,409.940600L448.139339,409.940600C430.636197,409.940600,416.404215,394.263283,416.217059,374.961740C416.272053,371.815065,414.145096,369.169599,411.375418,368.939807C410.007446,368.879651,408.676798,369.453133,407.689770,370.528246C406.702742,371.603359,406.144373,373.087475,406.143191,374.638972C406.143191,394.097288,391.821699,409.940600,374.220910,409.940600C356.620122,409.940600,342.298630,394.097288,342.298630,374.638972C342.189915,371.573010,339.965137,369.150941,337.257627,369.150941C334.550118,369.150941,332.325339,371.573010,332.216625,374.638972C332.216625,394.097288,317.903270,409.940600,300.294344,409.940600C282.685419,409.940600,268.559219,394.263283,268.380201,374.961740C268.435195,371.815065,266.308238,369.169599,263.538560,368.939807C262.170588,368.879651,260.839940,369.453133,259.852912,370.528246C258.865885,371.603359,258.307515,373.087475,258.306333,374.638972C258.306333,394.005069,244.139448,409.783826,226.652580,409.940600L226.652580,409.940600C209.059929,409.940600,194.738437,394.097288,194.738437,374.638972C194.629723,371.573010,192.404944,369.150941,189.697435,369.150941C186.989925,369.150941,184.765146,371.573010,184.656432,374.638972C184.656432,394.097288,170.343077,409.940600,152.742289,409.940600C135.141500,409.940600,120.820008,394.097288,120.820008,374.638972C120.711294,371.573010,118.486515,369.150941,115.779006,369.150941C113.071496,369.150941,110.846717,371.573010,110.738003,374.638972C110.738003,394.097288,96.424648,409.940600,78.823860,409.940600C61.223071,409.940600,47.048049,394.263283,46.901579,374.897187C46.952213,371.764209,44.833703,369.132510,42.076213,368.902919C40.704849,368.834952,39.368572,369.405258,38.377421,370.481514C37.386271,371.557770,36.826401,373.046425,36.827711,374.602084C36.827711,393.968181,22.636415,409.756161,5.157684,409.903712C2.448977,409.852589,0.180367,412.216800,-0.001308,415.280109C-0.065922,416.793361,0.419797,418.270451,1.342507,419.366707C2.265218,420.462963,3.544203,421.082487,4.881019,421.080716C20.195099,421.150294,34.339104,411.806526,41.832096,396.670212C49.372872,411.758019,63.490928,421.083750,78.791311,421.083750C94.091694,421.083750,108.209749,411.758019,115.750525,396.670212C123.287364,411.749021,137.394153,421.072866,152.685685,421.082407C167.977216,421.091949,182.093056,411.785716,189.644543,396.716322C197.145126,411.824745,211.274857,421.147610,226.571208,421.080716L226.571208,421.080716C241.802229,421.148349,255.857255,411.810989,263.245620,396.716322C270.792037,411.781288,284.898858,421.089203,300.184492,421.089203C315.470125,421.089203,329.576947,411.781288,337.123363,396.716322C344.670903,411.776725,358.775479,421.081083,374.058166,421.081083C389.340853,421.081083,403.445429,411.776725,410.992969,396.716322C418.495111,411.831959,432.633277,421.156280,447.935909,421.080716C450.650320,421.080716,452.850785,418.586916,452.850785,415.510658C452.850785,412.434400,450.650320,409.940600,447.935909,409.940600Z" transform="matrix(0.55558649277014 0.00586513401758 -0.00562561627502 0.53289769791153 144.60014159507153 185.92650253102747)" fill="rgb(65,77,80)" stroke="rgb(83,97,99)" stroke-width="4" stroke-miterlimit="10"/></g><g id="esfl33pbppjn39" transform="matrix(1.27062927665976 0 0 1.24257992818124 -426.88715915000006 -9.49859777000000)"><g id="esfl33pbppjn40"><path id="esfl33pbppjn41" d="M2695,326.790000L2634.390000,326.790000L2634.390000,418.790000L2594.130000,418.790000L2594.130000,311.790000C2595.850000,311.670000,2597.660000,311.450000,2599.470000,311.440000L2643.100000,311.440000C2654.370000,311.440000,2663.100000,306.040000,2668.100000,294.610000C2669.930000,290.390000,2670.330000,285.060000,2670.370000,280.220000C2670.580000,254.440000,2670.230000,228.660000,2670.560000,202.890000C2670.720000,189.890000,2666.240000,180.230000,2656.030000,174.610000C2646.320000,169.270000,2636.670000,170.030000,2627.750000,177.430000C2627.345549,177.710678,2626.921080,177.961348,2626.480000,178.180000C2633.850000,153,2670.620000,144.300000,2686.620000,164.030000C2687.560000,165.190000,2688.450000,166.410000,2689.310000,167.650000C2693.020514,173.049632,2695.004644,179.448365,2695,186Z" transform="matrix(1 0 0 1 2 -10.12000000000000)" fill="rgb(65,77,80)" stroke="none" stroke-width="1"/><path id="esfl33pbppjn42" d="M2560.070000,304.070000L2560.070000,270.650000L2624,270.650000L2624,264.270000C2624,243.610000,2624.380000,222.930000,2623.880000,202.270000C2623.480000,186.060000,2637.360000,174.430000,2651.530000,180.270000C2657.760000,182.810000,2662.760000,190.180000,2662.810000,198.790000C2662.990000,227.220000,2663.080000,255.650000,2662.810000,284.080000C2662.690000,295.710000,2655.810000,303.670000,2644.610000,303.910000C2616.560000,304.470000,2588.580000,304.070000,2560.070000,304.070000Z" transform="matrix(1 0 0 1 2 -10.12000000000000)" fill="rgb(65,77,80)" stroke="none" stroke-width="1"/><path id="esfl33pbppjn43" d="M2647.830000,145.700000C2633.520000,145.980000,2621.940000,137.060000,2616.220000,124.010000C2606.580000,102.010000,2623.900000,77.740000,2642.560000,75.720000C2660.820000,73.720000,2674.980000,84.720000,2679.560000,99.930000C2686.730000,123.690000,2669.370000,145.610000,2647.830000,145.700000Z" transform="matrix(1 0 0 1 2 -10.12000000000000)" fill="rgb(65,77,80)" stroke="none" stroke-width="1"/></g><g id="esfl33pbppjn44"><path id="esfl33pbppjn45" d="M2520.760000,194.350000L2399,194.350000C2401.390000,224.600000,2403.750000,254.610000,2406.150000,284.940000L2382.810000,284.940000C2382.720000,283.250000,2382.520000,281.410000,2382.520000,279.570000Q2382.520000,244.570000,2382.460000,209.680000C2382.460000,199.420000,2383.840000,189.460000,2388.550000,180.680000C2398.990000,161.270000,2414.700000,150.850000,2434.650000,149.740000C2437.740000,149.570000,2441.280000,154.740000,2444.250000,157.840000C2449.580000,163.450000,2454.640000,169.390000,2459.850000,175.230000L2473.220000,160.540000C2476.220000,157.240000,2479.130000,153.810000,2482.280000,150.700000C2483.322763,149.825487,2484.676945,149.413816,2486.030000,149.560000C2502.240000,151.310000,2515.710000,158.620000,2526.350000,173.090000C2533.248400,182.259129,2537.029669,193.396175,2537.140000,204.870000C2537.550000,230.460000,2537.310000,256.050000,2537.320000,281.640000C2537.320000,282.640000,2537.140000,283.690000,2537.020000,284.950000L2513.170000,284.950000C2515.640000,254.800000,2518.170000,224.920000,2520.760000,194.350000Z" transform="matrix(1 0 0 1 2 -10.12000000000000)" fill="rgb(65,77,80)" stroke="none" stroke-width="1"/><path id="esfl33pbppjn46" d="M2407.180000,201.840000L2512.350000,201.840000C2510.350000,229.710000,2508.450000,257.210000,2506.490000,284.970000L2413.110000,284.970000" transform="matrix(1 0 0 1 2 -10.12000000000000)" fill="rgb(65,77,80)" stroke="none" stroke-width="1"/><path id="esfl33pbppjn47" d="M2362,293.090000L2553,293.090000L2553,311.330000L2585.410000,311.330000C2586.990000,320.410000,2586.750000,320.740000,2579.760000,320.740000L2368.360000,320.740000C2362.040000,320.740000,2362.040000,320.740000,2362.040000,313.620000Z" transform="matrix(1 0 0 1 2 -10.12000000000000)" fill="rgb(65,77,80)" stroke="none" stroke-width="1"/><path id="esfl33pbppjn48" d="M2441.740000,136.440000C2447.017653,139.876427,2453.182180,141.700765,2459.480000,141.690000L2459.480000,141.690000L2459.720000,141.690000C2479.310000,141.530000,2494.190000,123.580000,2493.990000,106.550000C2493.750000,88.860000,2478.640000,71.300000,2459.750000,71.190000C2453.546294,71.244872,2447.499405,73.145621,2442.380000,76.650000C2432.520000,83.220000,2425.590000,94.800000,2425.490000,106.430000C2425.430000,117.850000,2432.180000,129.780000,2441.740000,136.440000Z" transform="matrix(1 0 0 1 2 -10.12000000000000)" fill="rgb(65,77,80)" stroke="none" stroke-width="1"/><path id="esfl33pbppjn49" d="M2409.640000,328.360000L2437.150000,328.360000C2437.260000,330.060000,2437.450000,331.600000,2437.450000,333.140000C2437.450000,359.970000,2437.370000,386.800000,2437.550000,413.630000C2437.550000,418.170000,2436.260000,419.380000,2432.460000,419.200000C2426.060000,418.890000,2419.650000,419.080000,2413.240000,419.120000C2411.150000,419.120000,2409.600000,418.850000,2409.610000,415.780000C2409.660000,386.840000,2409.640000,357.910000,2409.640000,328.360000Z" transform="matrix(1 0 0 1 2 -10.12000000000000)" fill="rgb(65,77,80)" stroke="none" stroke-width="1"/><path id="esfl33pbppjn50" d="M2509.700000,418.830000L2482.440000,418.830000L2482.440000,328.460000L2509.700000,328.460000Z" transform="matrix(1 0 0 1 2 -10.12000000000000)" fill="rgb(65,77,80)" stroke="none" stroke-width="1"/><path id="esfl33pbppjn51" d="M2475,149.260000L2459.800000,163.900000C2456.110000,160.020000,2450.650000,153.820000,2446.260000,149.230000Z" transform="matrix(1 0 0 1 2 -10.12000000000000)" fill="rgb(65,77,80)" stroke="none" stroke-width="1"/></g><path id="esfl33pbppjn52" d="M2640.350000,68.540000C2639.650000,66.760000,2639.140000,65.360000,2638.510000,63.990000C2637.900000,62.420000,2637.130000,60.910000,2636.510000,59.320000C2629.570000,41.530000,2617.270000,30.320000,2601.570000,23.410000C2585.140000,16.240000,2568.490000,16.330000,2552.140000,23.330000C2533.140000,31.420000,2519.950000,46.620000,2513.880000,68.490000C2507.700000,90.800000,2513.260000,110.940000,2525.940000,128.610000C2529.646139,133.671799,2534.151758,138.096358,2539.280000,141.710000C2554.660000,152.630000,2571.500000,156.390000,2589.500000,152.830000C2599.647432,150.769113,2609.130459,146.238829,2617.110000,139.640000C2593.610000,110.440000,2612.210000,74.130000,2640.350000,68.540000ZM2584.880000,60.680000L2584.880000,60.680000C2584.880002,62.941378,2583.980989,65.109990,2582.381015,66.708088C2580.781042,68.306186,2578.611377,69.202654,2576.350000,69.200000L2575.350000,69.200000C2570.645179,69.200029,2566.826527,65.394792,2566.810000,60.690000L2566.810000,60.690000C2566.804688,58.421588,2567.702089,56.244264,2569.304226,54.638375C2570.906363,53.032486,2573.081582,52.129994,2575.350000,52.130000L2576.350000,52.130000C2578.614949,52.132651,2580.786079,53.034941,2582.385765,54.638377C2583.985450,56.241814,2584.882654,58.415051,2584.880000,60.680000ZM2566.880000,117.550000C2566.880000,105.550000,2566.880000,93.550000,2566.880000,81.470000C2566.879776,78.183437,2569.523660,75.508343,2572.810000,75.470000L2578.910000,75.470000C2582.223708,75.470000,2584.910000,78.156292,2584.910000,81.470000L2584.910000,117.620000C2584.910000,120.933708,2582.223708,123.620000,2578.910000,123.620000L2572.790000,123.620000C2571.195183,123.606819,2569.671236,122.959227,2568.554806,121.820281C2567.438376,120.681334,2566.821339,119.144762,2566.840000,117.550000Z" transform="matrix(1 0 0 1 2 -10.12000000000000)" opacity="0" fill="rgb(65,77,80)" stroke="none" stroke-width="1"/></g><script><![CDATA[!function(t,n){"object"==typeof exports&&"undefined"!=typeof module?module.exports=n():"function"==typeof define&&define.amd?define(n):(t=t||self).__SVGATOR_PLAYER__=n()}(this,(function(){"use strict";function t(n){return(t="function"==typeof Symbol&&"symbol"==typeof Symbol.iterator?function(t){return typeof t}:function(t){return t&&"function"==typeof Symbol&&t.constructor===Symbol&&t!==Symbol.prototype?"symbol":typeof t})(n)}function n(t,n){if(!(t instanceof n))throw new TypeError("Cannot call a class as a function")}function r(t,n){for(var r=0;r<n.length;r++){var e=n[r];e.enumerable=e.enumerable||!1,e.configurable=!0,"value"in e&&(e.writable=!0),Object.defineProperty(t,e.key,e)}}function e(t,n,e){return n&&r(t.prototype,n),e&&r(t,e),t}var i=1e-5,u=Math.abs;function o(t){return t}function a(t,n,r){var e=1-r;return 3*r*e*(t*e+n*r)+r*r*r}function l(){var t=arguments.length>0&&void 0!==arguments[0]?arguments[0]:0,n=arguments.length>1&&void 0!==arguments[1]?arguments[1]:0,r=arguments.length>2&&void 0!==arguments[2]?arguments[2]:1,e=arguments.length>3&&void 0!==arguments[3]?arguments[3]:1;return t<0||t>1||r<0||r>1?null:u(t-n)<=i&&u(r-e)<=i?o:function(o){if(o<=0)return t>0?o*n/t:0===n&&r>0?o*e/r:0;if(o>=1)return r<1?1+(o-1)*(e-1)/(r-1):1===r&&t<1?1+(o-1)*(n-1)/(t-1):1;for(var l,f=0,s=1;f<s;){var c=a(t,r,l=(f+s)/2);if(u(o-c)<i)break;c<o?f=l:s=l}return a(n,e,l)}}function f(){return 1}function s(t){return 1===t?1:0}function c(){var t=arguments.length>0&&void 0!==arguments[0]?arguments[0]:1,n=arguments.length>1&&void 0!==arguments[1]?arguments[1]:0;if(1===t){if(0===n)return s;if(1===n)return f}var r=1/t;return function(t){return t>=1?1:(t+=n*r)-t%r}}function v(t){var n=arguments.length>1&&void 0!==arguments[1]?arguments[1]:2;if(Number.isInteger(t))return t;var r=Math.pow(10,n);return Math.round(t*r)/r}var h=Math.PI/180;function y(t,n,r){return t>=.5?r:n}function d(t,n,r){return 0===t||n===r?n:t*(r-n)+n}function g(t,n,r){var e=d(t,n,r);return e<=0?0:e}function m(t,n,r){return 0===t?n:1===t?r:{x:d(t,n.x,r.x),y:d(t,n.y,r.y)}}function p(t,n,r){return 0===t?n:1===t?r:{x:g(t,n.x,r.x),y:g(t,n.y,r.y)}}function b(t,n,r){var e=function(t,n,r){return Math.round(d(t,n,r))}(t,n,r);return e<=0?0:e>=255?255:e}function w(t,n,r){return 0===t?n:1===t?r:{r:b(t,n.r,r.r),g:b(t,n.g,r.g),b:b(t,n.b,r.b),a:d(t,null==n.a?1:n.a,null==r.a?1:r.a)}}function A(t,n,r){if(0===t)return n;if(1===t)return r;var e=n.length;if(e!==r.length)return y(t,n,r);for(var i=[],u=0;u<e;u++)i.push(w(t,n[u],r[u]));return i}function x(t,n,r){var e=n.length;if(e!==r.length)return y(t,n,r);for(var i=new Array(e),u=0;u<e;u++)i[u]=d(t,n[u],r[u]);return i}function k(t,n){for(var r=[],e=0;e<t;e++)r.push(n);return r}function S(t,n){if(--n<=0)return t;var r=(t=Object.assign([],t)).length;do{for(var e=0;e<r;e++)t.push(t[e])}while(--n>0);return t}var _=6,M=/\.0+$/g;function I(t){return Number.isInteger(t)?t+"":t.toFixed(_).replace(M,"")}function E(t){var n=arguments.length>1&&void 0!==arguments[1]?arguments[1]:" ";return t&&t.length?t.map(I).join(n):""}function F(t){return I(t.x)+","+I(t.y)}function B(t){return t?null==t.a||t.a>=1?"rgb("+t.r+","+t.g+","+t.b+")":"rgba("+t.r+","+t.g+","+t.b+","+t.a+")":"transparent"}var j={f:null,i:p,u:function(t,n){return function(r){var e=n(r);t.setAttribute("rx",I(e.x)),t.setAttribute("ry",I(e.y))}}},q={f:null,i:function(t,n,r){return 0===t?n:1===t?r:{width:g(t,n.width,r.width),height:g(t,n.height,r.height)}},u:function(t,n){return function(r){var e=n(r);t.setAttribute("width",I(e.width)),t.setAttribute("height",I(e.height))}}},P=Math.sin,O=Math.cos,z=Math.acos,L=Math.asin,C=Math.tan,R=Math.atan2,T=Math.PI/180,V=180/Math.PI,D=Math.sqrt,N=function(){function t(){var r=arguments.length>0&&void 0!==arguments[0]?arguments[0]:1,e=arguments.length>1&&void 0!==arguments[1]?arguments[1]:0,i=arguments.length>2&&void 0!==arguments[2]?arguments[2]:0,u=arguments.length>3&&void 0!==arguments[3]?arguments[3]:1,o=arguments.length>4&&void 0!==arguments[4]?arguments[4]:0,a=arguments.length>5&&void 0!==arguments[5]?arguments[5]:0;n(this,t),this.m=[r,e,i,u,o,a],this.i=null,this.w=null,this.s=null}return e(t,[{key:"point",value:function(t,n){var r=this.m;return{x:r[0]*t+r[2]*n+r[4],y:r[1]*t+r[3]*n+r[5]}}},{key:"translateSelf",value:function(){var t=arguments.length>0&&void 0!==arguments[0]?arguments[0]:0,n=arguments.length>1&&void 0!==arguments[1]?arguments[1]:0;if(!t&&!n)return this;var r=this.m;return r[4]+=r[0]*t+r[2]*n,r[5]+=r[1]*t+r[3]*n,this.w=this.s=this.i=null,this}},{key:"rotateSelf",value:function(){var t=arguments.length>0&&void 0!==arguments[0]?arguments[0]:0;if(t%=360){var n=P(t*=T),r=O(t),e=this.m,i=e[0],u=e[1];e[0]=i*r+e[2]*n,e[1]=u*r+e[3]*n,e[2]=e[2]*r-i*n,e[3]=e[3]*r-u*n,this.w=this.s=this.i=null}return this}},{key:"scaleSelf",value:function(){var t=arguments.length>0&&void 0!==arguments[0]?arguments[0]:1,n=arguments.length>1&&void 0!==arguments[1]?arguments[1]:1;if(1!==t||1!==n){var r=this.m;r[0]*=t,r[1]*=t,r[2]*=n,r[3]*=n,this.w=this.s=this.i=null}return this}},{key:"skewSelf",value:function(t,n){if(n%=360,(t%=360)||n){var r=this.m,e=r[0],i=r[1],u=r[2],o=r[3];t&&(t=C(t*T),r[2]+=e*t,r[3]+=i*t),n&&(n=C(n*T),r[0]+=u*n,r[1]+=o*n),this.w=this.s=this.i=null}return this}},{key:"resetSelf",value:function(){var t=arguments.length>0&&void 0!==arguments[0]?arguments[0]:1,n=arguments.length>1&&void 0!==arguments[1]?arguments[1]:0,r=arguments.length>2&&void 0!==arguments[2]?arguments[2]:0,e=arguments.length>3&&void 0!==arguments[3]?arguments[3]:1,i=arguments.length>4&&void 0!==arguments[4]?arguments[4]:0,u=arguments.length>5&&void 0!==arguments[5]?arguments[5]:0,o=this.m;return o[0]=t,o[1]=n,o[2]=r,o[3]=e,o[4]=i,o[5]=u,this.w=this.s=this.i=null,this}},{key:"recomposeSelf",value:function(){var t=arguments.length>0&&void 0!==arguments[0]?arguments[0]:null,n=arguments.length>1&&void 0!==arguments[1]?arguments[1]:null,r=arguments.length>2&&void 0!==arguments[2]?arguments[2]:null,e=arguments.length>3&&void 0!==arguments[3]?arguments[3]:null,i=arguments.length>4&&void 0!==arguments[4]?arguments[4]:null;return this.isIdentity||this.resetSelf(),t&&(t.x||t.y)&&this.translateSelf(t.x,t.y),n&&this.rotateSelf(n),r&&(r.x&&this.skewSelf(r.x,0),r.y&&this.skewSelf(0,r.y)),!e||1===e.x&&1===e.y||this.scaleSelf(e.x,e.y),i&&(i.x||i.y)&&this.translateSelf(i.x,i.y),this}},{key:"decompose",value:function(){var t=arguments.length>0&&void 0!==arguments[0]?arguments[0]:0,n=arguments.length>1&&void 0!==arguments[1]?arguments[1]:0,r=this.m,e=r[0]*r[0]+r[1]*r[1],i=[[r[0],r[1]],[r[2],r[3]]],u=D(e);if(0===u)return{origin:{x:r[4],y:r[5]},translate:{x:t,y:n},scale:{x:0,y:0},skew:{x:0,y:0},rotate:0};i[0][0]/=u,i[0][1]/=u;var o=r[0]*r[3]-r[1]*r[2]<0;o&&(u=-u);var a=i[0][0]*i[1][0]+i[0][1]*i[1][1];i[1][0]-=i[0][0]*a,i[1][1]-=i[0][1]*a;var l=D(i[1][0]*i[1][0]+i[1][1]*i[1][1]);if(0===l)return{origin:{x:r[4],y:r[5]},translate:{x:t,y:n},scale:{x:u,y:0},skew:{x:0,y:0},rotate:0};i[1][0]/=l,i[1][1]/=l,a/=l;var f=0;return i[1][1]<0?(f=z(i[1][1])*V,i[0][1]<0&&(f=360-f)):f=L(i[0][1])*V,o&&(f=-f),a=R(a,D(i[0][0]*i[0][0]+i[0][1]*i[0][1]))*V,{origin:{x:r[4],y:r[5]},translate:{x:t,y:n},scale:{x:u,y:l},skew:{x:a,y:0},rotate:f}}},{key:"toString",value:function(){return null===this.s&&(this.s="matrix("+this.m.map($).join(" ")+")"),this.s}},{key:"determinant",get:function(){var t=this.m;return t[0]*t[3]-t[1]*t[2]}},{key:"isIdentity",get:function(){if(null===this.i){var t=this.m;this.i=1===t[0]&&0===t[1]&&0===t[2]&&1===t[3]&&0===t[4]&&0===t[5]}return this.i}}]),t}(),G=/\.0+$/;function $(t){return Number.isInteger(t)?t:t.toFixed(14).replace(G,"")}Object.freeze({M:2,L:2,Z:0,H:1,V:1,C:6,Q:4,T:2,S:4,A:7});function H(t,n,r){return t+(n-t)*r}function Q(t,n,r){var e=arguments.length>3&&void 0!==arguments[3]&&arguments[3],i={x:H(t.x,n.x,r),y:H(t.y,n.y,r)};return e&&(i.a=function(t,n){return Math.atan2(n.y-t.y,n.x-t.x)}(t,n)),i}function U(t,n,r,e){var i=1-e;return i*i*t+2*i*e*n+e*e*r}function Y(t,n,r,e){return 2*(1-e)*(n-t)+2*e*(r-n)}function Z(t,n,r,e){var i=arguments.length>4&&void 0!==arguments[4]&&arguments[4],u={x:U(t.x,n.x,r.x,e),y:U(t.y,n.y,r.y,e)};return i&&(u.a=function(t,n,r,e){return Math.atan2(Y(t.y,n.y,r.y,e),Y(t.x,n.x,r.x,e))}(t,n,r,e)),u}function J(t,n,r,e,i){var u=i*i;return i*u*(e-t+3*(n-r))+3*u*(t+r-2*n)+3*i*(n-t)+t}function K(t,n,r,e,i){var u=1-i;return 3*(u*u*(n-t)+2*u*i*(r-n)+i*i*(e-r))}function W(t,n,r,e,i){var u=arguments.length>5&&void 0!==arguments[5]&&arguments[5],o={x:J(t.x,n.x,r.x,e.x,i),y:J(t.y,n.y,r.y,e.y,i)};return u&&(o.a=function(t,n,r,e,i){return Math.atan2(K(t.y,n.y,r.y,e.y,i),K(t.x,n.x,r.x,e.x,i))}(t,n,r,e,i)),o}function X(t,n,r){var e,i=arguments.length>3&&void 0!==arguments[3]&&arguments[3];if(nt(n)){if(null!=(e=r).start&&!nt(e))return Z(n,r.start,r,t,i)}else if(nt(r)){if(n.end)return Z(n,n.end,r,t,i)}else{if(n.end)return r.start?W(n,n.end,r.start,r,t,i):Z(n,n.end,r,t,i);if(r.start)return Z(n,r.start,r,t,i)}return Q(n,r,t,i)}function tt(t,n,r){var e=X(t,n,r,!0);return e.a=function(t){return arguments.length>1&&void 0!==arguments[1]&&arguments[1]?t+Math.PI:t}(e.a)/h,e}function nt(t){return!t.type||"corner"===t.type}var rt=new N;var et={f:function(t){return t?t.join(" "):""},i:function(n,r,e){if(0===n)return r;if(1===n)return e;var i=r.length;if(i!==e.length)return y(n,r,e);for(var u,o=new Array(i),a=0;a<i;a++){if((u=t(r[a]))!==t(e[a]))return y(n,r,e);if("number"===u)o[a]=d(n,r[a],e[a]);else{if(r[a]!==e[a])return y(n,r,e);o[a]=r[a]}}return o}},it={f:null,i:x,u:function(t,n){return function(r){var e=n(r);t.setAttribute("x1",I(e[0])),t.setAttribute("y1",I(e[1])),t.setAttribute("x2",I(e[2])),t.setAttribute("y2",I(e[3]))}}},ut={f:I,i:d},ot={f:I,i:function(t,n,r){var e=d(t,n,r);return e<=0?0:e>=1?1:e}},at={f:E,i:function(t,n,r){var e,i,u,o=n.length,a=r.length;if(o!==a)if(0===o)n=k(o=a,0);else if(0===a)a=o,r=k(o,0);else{var l=(u=(e=o)*(i=a)/function(t,n){for(var r;n;)r=n,n=t%n,t=r;return t||1}(e,i))<0?-u:u;n=S(n,Math.floor(l/o)),r=S(r,Math.floor(l/a)),o=a=l}for(var f=[],s=0;s<o;s++)f.push(v(g(t,n[s],r[s]),6));return f}};function lt(t,n,r,e,i,u,o,a){return n=function(t,n,r){for(var e,i,u,o=t.length-1,a={},l=0;l<=o;l++)(e=t[l]).e&&(e.e=n(e.e)),e.v&&"g"===(i=e.v).t&&i.r&&(u=r.getElementById(i.r))&&(a[i.r]=u.querySelectorAll("stop"));return a}(t,e,a),function(e){var i,u=r(e,t,ft);return u?"c"===u.t?B(u.v):"g"===u.t?(n[u.r]&&function(t,n){for(var r=0,e=t.length;r<e;r++)t[r].setAttribute("stop-color",B(n[r]))}(n[u.r],u.v),(i=u.r)?"url(#"+i+")":"none"):"none":"none"}}function ft(t,n,r){if(0===t)return n;if(1===t)return r;if(n&&r){var e=n.t;if(e===r.t)switch(n.t){case"c":return{t:e,v:w(t,n.v,r.v)};case"g":if(n.r===r.r)return{t:e,v:A(t,n.v,r.v),r:n.r}}}return y(t,n,r)}var st={blur:p,brightness:g,contrast:g,"drop-shadow":function(t,n,r){return 0===t?n:1===t?r:{blur:p(t,n.blur,r.blur),offset:m(t,n.offset,r.offset),color:w(t,n.color,r.color)}},grayscale:g,"hue-rotate":d,invert:g,opacity:g,saturate:g,sepia:g};function ct(t,n,r){if(0===t)return n;if(1===t)return r;var e=n.length;if(e!==r.length)return y(t,n,r);for(var i,u=[],o=0;o<e;o++){if(n[o].type!==r[o].type)return n;if(!(i=st[n[o].type]))return y(t,n,r);u.push({type:n.type,value:i(t,n[o].value,r[o].value)})}return u}var vt={blur:function(t){return t?function(n){t.setAttribute("stdDeviation",F(n))}:null},brightness:function(t,n,r){return(t=yt(r,n))?function(n){n=I(n),t.map((function(t){return t.setAttribute("slope",n)}))}:null},contrast:function(t,n,r){return(t=yt(r,n))?function(n){var r=I((1-n)/2);n=I(n),t.map((function(t){t.setAttribute("slope",n),t.setAttribute("intercept",r)}))}:null},"drop-shadow":function(t,n,r){var e=r.getElementById(n+"-blur");if(!e)return null;var i=r.getElementById(n+"-offset");if(!i)return null;var u=r.getElementById(n+"-flood");return u?function(t){e.setAttribute("stdDeviation",F(t.blur)),i.setAttribute("dx",I(t.offset.x)),i.setAttribute("dy",I(t.offset.y)),u.setAttribute("flood-color",B(t.color))}:null},grayscale:function(t){return t?function(n){t.setAttribute("values",E(function(t){return[.2126+.7874*(t=1-t),.7152-.7152*t,.0722-.0722*t,0,0,.2126-.2126*t,.7152+.2848*t,.0722-.0722*t,0,0,.2126-.2126*t,.7152-.7152*t,.0722+.9278*t,0,0,0,0,0,1,0]}(n)))}:null},"hue-rotate":function(t){return t?function(n){return t.setAttribute("values",I(n))}:null},invert:function(t,n,r){return(t=yt(r,n))?function(n){n=I(n)+" "+I(1-n),t.map((function(t){return t.setAttribute("tableValues",n)}))}:null},opacity:function(t,n,r){return(t=r.getElementById(n+"-A"))?function(n){return t.setAttribute("tableValues","0 "+I(n))}:null},saturate:function(t){return t?function(n){return t.setAttribute("values",I(n))}:null},sepia:function(t){return t?function(n){return t.setAttribute("values",E(function(t){return[.393+.607*(t=1-t),.769-.769*t,.189-.189*t,0,0,.349-.349*t,.686+.314*t,.168-.168*t,0,0,.272-.272*t,.534-.534*t,.131+.869*t,0,0,0,0,0,1,0]}(n)))}:null}};var ht=["R","G","B"];function yt(t,n){var r=ht.map((function(r){return t.getElementById(n+"-"+r)||null}));return-1!==r.indexOf(null)?null:r}var dt={fill:lt,"fill-opacity":ot,stroke:lt,"stroke-opacity":ot,"stroke-width":ut,"stroke-dashoffset":{f:I,i:d},"stroke-dasharray":at,opacity:ot,transform:function(n,r,e,i){if(!(n=function(n,r){if(!n||"object"!==t(n))return null;var e=!1;for(var i in n)n.hasOwnProperty(i)&&(n[i]&&n[i].length?(n[i].forEach((function(t){t.e&&(t.e=r(t.e))})),e=!0):delete n[i]);return e?n:null}(n,i)))return null;var u=function(t,i,u){var o=arguments.length>3&&void 0!==arguments[3]?arguments[3]:null;return n[t]?e(i,n[t],u):r&&r[t]?r[t]:o};return r&&r.a&&n.o?function(t){var r=e(t,n.o,tt);return rt.recomposeSelf(r,u("r",t,d,0)+r.a,u("k",t,m),u("s",t,m),u("t",t,m)).toString()}:function(t){return rt.recomposeSelf(u("o",t,X,null),u("r",t,d,0),u("k",t,m),u("s",t,m),u("t",t,m)).toString()}},"#filter":function(t,n,r,e,i,u,o,a){if(!n.items||!t||!t.length)return null;var l=function(t,n){var r=(t=t.map((function(t){return t&&vt[t[0]]?(n.getElementById(t[1]),vt[t[0]](n.getElementById(t[1]),t[1],n)):null}))).length;return function(n){for(var e=0;e<r;e++)t[e]&&t[e](n[e].value)}}(n.items,a);return l?(t=function(t,n){return t.map((function(t){return t.e=n(t.e),t}))}(t,e),function(n){l(r(n,t,ct))}):null},"#line":it,points:{f:E,i:x},d:et,r:ut,"#size":q,"#radius":j,_:function(t,n){if(Array.isArray(t))for(var r=0;r<t.length;r++)this[t[r]]=n;else this[t]=n}},gt=function(){function t(r){n(this,t),this.list=r,this.length=r.length}return e(t,[{key:"setAttribute",value:function(t,n){for(var r=this.list,e=0;e<this.length;e++)r[e].setAttribute(t,n)}},{key:"removeAttribute",value:function(t){for(var n=this.list,r=0;r<this.length;r++)n[r].removeAttribute(t)}},{key:"style",value:function(t,n){for(var r=this.list,e=0;e<this.length;e++)r[e].style[t]=n}}]),t}(),mt=/-./g,pt=function(t,n){return n.toUpperCase()};function bt(t){return"function"==typeof t?t:y}function wt(t){return t?"function"==typeof t?t:Array.isArray(t)?function(t){var n=arguments.length>1&&void 0!==arguments[1]?arguments[1]:o;if(!Array.isArray(t))return n;switch(t.length){case 1:return c(t[0])||n;case 2:return c(t[0],t[1])||n;case 4:return l(t[0],t[1],t[2],t[3])||n}return n}(t,null):function(t,n){var r=arguments.length>2&&void 0!==arguments[2]?arguments[2]:o;switch(t){case"linear":return o;case"steps":return c(n.steps||1,n.jump||0)||r;case"bezier":case"cubic-bezier":return l(n.x1||0,n.y1||0,n.x2||0,n.y2||0)||r}return r}(t.type,t.value,null):null}function At(t,n,r){var e=arguments.length>3&&void 0!==arguments[3]&&arguments[3],i=n.length-1;if(t<=n[0].t)return e?[0,0,n[0].v]:n[0].v;if(t>=n[i].t)return e?[i,1,n[i].v]:n[i].v;var u,o=n[0],a=null;for(u=1;u<=i;u++){if(!(t>n[u].t)){a=n[u];break}o=n[u]}return null==a?e?[i,1,n[i].v]:n[i].v:o.t===a.t?e?[u,1,a.v]:a.v:(t=(t-o.t)/(a.t-o.t),o.e&&(t=o.e(t)),e?[u,t,r(t,o.v,a.v)]:r(t,o.v,a.v))}function xt(t,n){var r=arguments.length>2&&void 0!==arguments[2]?arguments[2]:null;return t&&t.length?"function"!=typeof n?null:("function"!=typeof r&&(r=null),function(e){var i=At(e,t,n);return null!=i&&r&&(i=r(i)),i}):null}function kt(t,n){return t.t-n.t}function St(n,r,e,i,u){var o,a="@"===e[0],l="#"===e[0],f=dt[e],s=y;switch(a?(o=e.substr(1),e=o.replace(mt,pt)):l&&(e=e.substr(1)),t(f)){case"function":if(s=f(i,u,At,wt,e,a,r,n),l)return s;break;case"string":s=xt(i,bt(f));break;case"object":if((s=xt(i,bt(f.i),f.f))&&"function"==typeof f.u)return f.u(r,s,e,a,n)}return s?function(t,n,r){if(arguments.length>3&&void 0!==arguments[3]&&arguments[3])return t instanceof gt?function(e){return t.style(n,r(e))}:function(e){return t.style[n]=r(e)};if(Array.isArray(n)){var e=n.length;return function(i){var u=r(i);if(null==u)for(var o=0;o<e;o++)t[o].removeAttribute(n);else for(var a=0;a<e;a++)t[a].setAttribute(n,u)}}return function(e){var i=r(e);null==i?t.removeAttribute(n):t.setAttribute(n,i)}}(r,e,s,a):null}function _t(n,r,e,i){if(!i||"object"!==t(i))return null;var u=null,o=null;return Array.isArray(i)?o=function(t){if(!t||!t.length)return null;for(var n=0;n<t.length;n++)t[n].e&&(t[n].e=wt(t[n].e));return t.sort(kt)}(i):(o=i.keys,u=i.data||null),o?St(n,r,e,o,u):null}function Mt(t,n,r){if(!r)return null;var e=[];for(var i in r)if(r.hasOwnProperty(i)){var u=_t(t,n,i,r[i]);u&&e.push(u)}return e.length?e:null}function It(t,n){if(!n.duration||n.duration<0)return null;var r=function(t,n){if(!n)return null;var r=[];if(Array.isArray(n))for(var e=n.length,i=0;i<e;i++){var u=n[i];if(2===u.length){var o=null;if("string"==typeof u[0])o=t.getElementById(u[0]);else if(Array.isArray(u[0])){o=[];for(var a=0;a<u[0].length;a++)if("string"==typeof u[0][a]){var l=t.getElementById(u[0][a]);l&&o.push(l)}o=o.length?1===o.length?o[0]:new gt(o):null}if(o){var f=Mt(t,o,u[1]);f&&(r=r.concat(f))}}}else for(var s in n)if(n.hasOwnProperty(s)){var c=t.getElementById(s);if(c){var v=Mt(t,c,n[s]);v&&(r=r.concat(v))}}return r.length?r:null}(t,n.elements);return r?function(t,n){var r=arguments.length>2&&void 0!==arguments[2]?arguments[2]:1/0,e=arguments.length>3&&void 0!==arguments[3]?arguments[3]:1,i=arguments.length>4&&void 0!==arguments[4]&&arguments[4],u=arguments.length>5&&void 0!==arguments[5]?arguments[5]:1,o=t.length,a=e>0?n:0;i&&r%2==0&&(a=n-a);var l=null;return function(f,s){var c=f%n,v=1+(f-c)/n;s*=e,i&&v%2==0&&(s=-s);var h=!1;if(v>r)c=a,h=!0,-1===u&&(c=e>0?0:n);else if(s<0&&(c=n-c),c===l)return!1;l=c;for(var y=0;y<o;y++)t[y](c);return h}}(r,n.duration,n.iterations||1/0,n.direction||1,!!n.alternate,n.fill||1):null}var Et=function(){function t(r){var e=arguments.length>1&&void 0!==arguments[1]?arguments[1]:{};n(this,t),this._id=0,this._running=!1,this._animations=r,this.direction=e.direction||1,this.speed=e.speed||1,this.fps=e.fps||100,this.offset=e.offset||0}return e(t,[{key:"_start",value:function(){var t=this,n=arguments.length>0&&void 0!==arguments[0]?arguments[0]:0,r=-1/0,e=null,i={},u=function u(o){t._running=!0,null==e&&(e=o);var a=Math.round((o-e+n)*t.speed),l=t.fps?1e3/t.fps:0;if(a>r+l){t.offset=a,r=a;for(var f=t._animations,s=f.length,c=0,v=0;v<s;v++)i[v]?c++:(i[v]=f[v](a,t.direction),i[v]&&c++);if(c===s)return void t._stop()}t._id=window.requestAnimationFrame(u)};this._id=window.requestAnimationFrame(u)}},{key:"_stop",value:function(){this._id&&window.cancelAnimationFrame(this._id),this._running=!1}},{key:"play",value:function(){this._running||this._start(this.offset)}},{key:"stop",value:function(){this._stop(),this.offset=0;var t=this.direction,n=this._animations;requestAnimationFrame((function(){for(var r=0;r<n.length;r++)n[r](0,t)}))}},{key:"restart",value:function(){this._stop(),this.offset=0,this._start()}},{key:"pause",value:function(){this._stop()}},{key:"reverse",value:function(){this.direction=-this.direction}}],[{key:"build",value:function(n){if(!(n=function(t){if(!t||!t.root||!Array.isArray(t.animations))return null;var n=window.document.getElementById(t.root);if(!n)return null;var r=t.animations.map((function(t){return It(n,t)})).filter((function(t){return!!t}));return r.length?{element:n,animations:r,options:t.options||void 0}:null}(n)))return null;var r=n.element,e=n.options||{},i=new t(n.animations,n.options);return function(t,n,r){var e=arguments.length>3&&void 0!==arguments[3]?arguments[3]:null;if("click"===r){return void n.addEventListener("click",(function r(){n.removeEventListener("click",r),t.play()}))}if("hover"===r)return n.addEventListener("mouseenter",(function(){return t.play()})),void n.addEventListener("mouseleave","freeze"===e?function(){return t.pause()}:function(){return t.stop()});t.play()}(i,r,e.start,e.hover),i}}]),t}();return function(){for(var t=0,n=["ms","moz","webkit","o"],r=0;r<n.length&&!window.requestAnimationFrame;++r)window.requestAnimationFrame=window[n[r]+"RequestAnimationFrame"],window.cancelAnimationFrame=window[n[r]+"CancelAnimationFrame"]||window[n[r]+"CancelRequestAnimationFrame"];window.requestAnimationFrame||(window.requestAnimationFrame=function(n){var r=Date.now(),e=Math.max(0,16-(r-t)),i=window.setTimeout((function(){n(r+e)}),e);return t=r+e,i},window.cancelAnimationFrame=window.clearTimeout)}(),Et}));
__SVGATOR_PLAYER__.build({"root":"esfl33pbppjn1","animations":[{"duration":2500,"direction":1,"iterations":1,"fill":1,"alternate":false,"elements":{"esfl33pbppjn7":{"transform":{"keys":{"o":[{"t":600,"v":{"x":-88.32035156500001,"y":-234.10600319999998,"type":"corner"}},{"t":860,"v":{"x":-79.59035644016649,"y":-112.67196584999998,"type":"corner"}},{"t":900,"v":{"x":-38.814773269264734,"y":-149.6044987108823,"type":"corner"}},{"t":1200,"v":{"x":0,"y":0,"type":"corner"}}]}},"opacity":[{"t":600,"v":0},{"t":610,"v":1}]},"esfl33pbppjn10":{"transform":{"keys":{"o":[{"t":720,"v":{"x":102.52338000000009,"y":-209.93629455999977,"type":"corner"}},{"t":1200,"v":{"x":97.98694799999998,"y":-21.914004709999716,"type":"corner"}}]}},"opacity":[{"t":720,"v":0},{"t":730,"v":1}]},"esfl33pbppjn13":{"transform":{"keys":{"o":[{"t":1030,"v":{"x":-5.075743849991795,"y":-132.66665074000014,"type":"corner"}},{"t":1200,"v":{"x":0,"y":0,"type":"corner"}}]}},"opacity":[{"t":1030,"v":0},{"t":1040,"v":1}]},"esfl33pbppjn16":{"transform":{"keys":{"o":[{"t":1390,"v":{"x":-5.590004880000151,"y":-55.69097827,"type":"corner"}},{"t":1500,"v":{"x":0,"y":0,"type":"corner"}}]}},"opacity":[{"t":1390,"v":0},{"t":1400,"v":1}]},"esfl33pbppjn19":{"transform":{"keys":{"o":[{"t":1140,"v":{"x":-9.980151999999862,"y":-2.326145170000002,"type":"corner"}},{"t":1420,"v":{"x":-9.980151999999862,"y":16.618672150000002,"type":"corner"}}]}},"opacity":[{"t":1140,"v":0},{"t":1150,"v":1}]},"esfl33pbppjn22":{"transform":{"keys":{"o":[{"t":1030,"v":{"x":-0.883850090000351,"y":-79.01051752000001,"type":"corner"}},{"t":1100,"v":{"x":0,"y":0,"type":"corner"}},{"t":1420,"v":{"x":-68.43973309499984,"y":19.13907491500005,"type":"corner"}}]}},"opacity":[{"t":1030,"v":0},{"t":1040,"v":1}]},"esfl33pbppjn25":{"transform":{"keys":{"o":[{"t":920,"v":{"x":-0.5866420199999993,"y":-102.89121558499997,"type":"corner"}},{"t":1420,"v":{"x":-12.381332079999993,"y":45.08633459999999,"type":"corner"}}]}},"opacity":[{"t":920,"v":0},{"t":930,"v":1}]},"esfl33pbppjn28":{"transform":{"keys":{"o":[{"t":720,"v":{"x":-4.536432000000104,"y":-168.77381896999992,"type":"corner"}},{"t":1420,"v":{"x":0,"y":0,"type":"corner"}}]}},"opacity":[{"t":710,"v":0},{"t":730,"v":1}]},"esfl33pbppjn31":{"transform":{"keys":{"o":[{"t":600,"v":{"x":13.433133384996381,"y":-245.089721535,"type":"corner"}},{"t":950,"v":{"x":5.519970330408076,"y":-96.72369632625023,"type":"corner"}},{"t":1000,"v":{"x":-12.639752141668245,"y":-138.91287702500009,"type":"corner"}},{"t":1420,"v":{"x":-38.8753112400002,"y":17.62704345999998,"type":"corner"}}]}},"opacity":[{"t":600,"v":0},{"t":610,"v":1}]},"esfl33pbppjn38":{"transform":{"data":{"t":{"x":-213.23075857000194,"y":3.704163115072249}},"keys":{"o":[{"t":0,"v":{"x":263.08910910000003,"y":185.20318951000004,"type":"corner"},"e":[0.42,0,1,1]},{"t":600,"v":{"x":268.115,"y":-13.562282,"type":"corner"},"e":[0.42,0,1,1]}],"r":[{"t":0,"v":0.604829216194971,"e":[0.42,0,1,1]},{"t":200,"v":-4.957799642627683,"e":[0.42,0,1,1]},{"t":400,"v":2.824061586487355,"e":[0.42,0,1,1]},{"t":600,"v":0.604829216194971,"e":[0.42,0,1,1]}],"k":[{"t":0,"v":{"x":0,"y":0},"e":[0.42,0,1,1]},{"t":600,"v":{"x":0,"y":0},"e":[0.42,0,1,1]}],"s":[{"t":0,"v":{"x":0.5556174500010458,"y":0.5329273909247725},"e":[0.42,0,1,1]},{"t":600,"v":{"x":1,"y":1},"e":[0.42,0,1,1]}]}},"fill":[{"t":0,"v":{"t":"c","v":{"r":65,"g":77,"b":80,"a":1}}},{"t":600,"v":{"t":"c","v":{"r":78,"g":88,"b":90,"a":1}}}],"stroke":[{"t":0,"v":{"t":"c","v":{"r":83,"g":97,"b":99,"a":1}},"e":[0.42,0,1,1]},{"t":600,"v":{"t":"c","v":{"r":78,"g":88,"b":90,"a":1}}}]},"esfl33pbppjn52":{"opacity":[{"t":1700,"v":0},{"t":2500,"v":1}]}}}],"options":{"start":"load","hover":"freeze"}})]]></script></svg>